/* XPM */
static char *result[] = {
/* columns rows colors chars-per-pixel */
"64 64 126 2 ",
"   c #0D0C0D",
".  c #130E0D",
"X  c #180E0C",
"o  c #12100E",
"O  c #18100C",
"+  c #0E0E11",
"@  c #110F10",
"#  c #111111",
"$  c #1A1714",
"%  c #1B1B1A",
"&  c #25130D",
"*  c #2B160E",
"=  c #2E180F",
"-  c #261711",
";  c #2C1913",
":  c #261B19",
">  c #3C1713",
",  c #351C11",
"<  c #3A1E14",
"1  c #321D1A",
"2  c #1E211C",
"3  c #22201E",
"4  c #342017",
"5  c #3E2116",
"6  c #3C2219",
"7  c #242523",
"8  c #292725",
"9  c #302726",
"0  c #3C2423",
"q  c #312825",
"w  c #312E2B",
"e  c #3E2E28",
"r  c #35322F",
"t  c #322E30",
"y  c #323332",
"u  c #3A3633",
"i  c #3C3A36",
"p  c #3C3E3B",
"a  c #421B15",
"s  c #441C1A",
"d  c #432316",
"f  c #4B2517",
"g  c #44261A",
"h  c #4A271C",
"j  c #4B2A1D",
"k  c #412420",
"l  c #492522",
"z  c #452B25",
"x  c #4C2A22",
"c  c #4D2E2B",
"v  c #512E23",
"b  c #513124",
"n  c #473A33",
"m  c #3F413D",
"M  c #40413A",
"N  c #57483F",
"B  c #434543",
"V  c #484643",
"C  c #474947",
"Z  c #484842",
"A  c #474B49",
"S  c #4B4D4C",
"D  c #534F46",
"F  c #584C47",
"G  c #4F524D",
"H  c #50524D",
"J  c #5E574E",
"K  c #525453",
"L  c #565955",
"P  c #595855",
"I  c #565858",
"U  c #5A5C5A",
"Y  c #665D58",
"T  c #5E605B",
"R  c #62615D",
"E  c #6A6358",
"W  c #5F6362",
"Q  c #636563",
"!  c #686762",
"~  c #666A66",
"^  c #6B6C67",
"/  c #676A69",
"(  c #6B6D6B",
")  c #716E6E",
"_  c #6E726C",
"`  c #72736C",
"'  c #6A6F71",
"]  c #6E7170",
"[  c #727472",
"{  c #757975",
"}  c #797A74",
"|  c #777A79",
" . c #7B7C7B",
".. c #7E827D",
"X. c #83837E",
"o. c #7F8280",
"O. c #848583",
"+. c #858884",
"@. c #8B8D86",
"#. c #8B8C8B",
"$. c #8D918C",
"%. c #92948D",
"&. c #939592",
"*. c #969A95",
"=. c #9D9D95",
"-. c #9B9E9A",
";. c #9FA096",
":. c #9FA29D",
">. c #A2A49D",
",. c #A5AA9C",
"<. c #A3A6A1",
"1. c #A6A9A3",
"2. c #ABACA4",
"3. c #ACAEA8",
"4. c #B0AFAA",
"5. c #AFB0A7",
"6. c #ADB1AA",
"7. c #B0B0A7",
"8. c #B1B3AC",
"9. c #B1B6B1",
"0. c #B4B8B2",
"q. c #B9B9B9",
"w. c #E6E6E6",
"e. c #E8E9E9",
"r. c white",
"t. c #000000",
/* pixels */
"t.t.t.t.t.t.t.t.t.t.t.t.t.t.t.t.t.t.t.t.t.t.t.t.t.t.t.t.t.t.t.t.t.t.t.t.t.t.t.t.t.t.t.t.t.t.t.t.t.t.t.t.t.t.t.t.t.t.t.t.t.t.t.t.",
"t.t.t.t.t.t.t.t.t.t.t.t.t.t.t.t.t.t.t.t.t.t.t.t.t.t.t.t.t.t.t.t.t.t.t.t.t.t.t.t.t.t.t.t.t.t.t.t.t.t.t.t.t.t.t.t.t.t.t.t.t.t.t.t.",
"t.t.t.t.t.t.t.t.t.t.t.t.t.t.t.t.t.t.t.t.t.t.t.t.t.t.t.t.t.t.t.t.t.t.t.t.t.t.t.t.t.t.t.t.t.t.t.t.t.t.t.t.t.t.t.t.t.t.t.t.t.t.t.t.",
"t.t.t.t.t.t.t.t.t.t.t.t.t.t.t.t.t.t.t.t.t.t.t.t.t.t.t.t.t.t.t.t.t.t.t.t.t.t.t.t.t.t.t.t.t.t.t.t.t.t.t.t.t.t.t.t.t.t.t.t.t.t.t.t.",
"t.t.t.t.t.t.t.t.t.t.t.t.t.t.t.t.t.t.t.t.t.t.t.t.t.t.t.t.t.t.t.t.t.t.t.t.t.t.t.t.t.t.t.t.t.t.t.t.t.t.t.t.t.t.t.t.t.t.t.t.t.t.t.t.",
"t.t.t.t.t.t.t.t.t.t.t.t.t.t.t.t.t.t.t.t.t.t.t.t.t.t.t.t.t.t.t.t.t.t.t.t.t.t.t.t.t.t.t.t.t.t.t.t.t.t.t.t.t.t.t.t.t.t.t.t.t.t.t.t.",
"t.t.t.t.t.t.t.t.t.t.t.t.t.t.t.t.t.t.t.t.t.t.t.t.t.t.t.t.t.t.t.t.t.t.t.t.t.t.t.t.t.t.t.t.t.t.t.t.t.t.t.t.t.t.t.t.t.t.t.t.t.t.t.t.",
"t.t.t.t.t.t.t.t.t.t.t.t.t.t.t.t.t.t.t.t.t.t.t.t.t.t.t.t.t.t.t.t.t.t.t.t.t.t.t.t.t.t.t.t.t.t.t.t.t.t.t.t.t.t.t.t.t.t.t.t.t.t.t.t.",
"t.t.t.t.t.t.t.t.t.t.t.t.t.t.t.t.t.t.t.t.t.t.t.t.t.t.t.t.t.t.t.t.t.t.t.t.t.t.t.t.t.t.t.t.t.t.t.t.t.t.t.t.t.t.t.t.t.t.t.t.t.t.t.t.",
"t.t.t.t.t.t.t.t.t.t.t.t.t.t.t.t.t.t.t.t.t.t.t.t.t.t.t.t.t.t.t.t.t.t.t.t.t.t.t.t.t.t.t.t.t.t.t.t.t.t.t.t.t.t.t.t.t.t.t.t.t.t.t.t.",
"t.t.t.t.t.t.t.t.t.t.t.t.t.t.t.t.t.t.t.t.t.t.t.t.t.t.t.t.t.t.t.t.t.t.t.t.t.t.t.t.t.t.t.t.t.t.t.t.t.t.t.t.t.t.t.t.t.t.t.t.t.t.t.t.",
"t.t.t.t.t.t.t.t.t.t.t.t.t.t.t.t.t.t.t.t.t.t.t.t.t.t.t.t.t.t.t.t.t.t.t.t.t.t.t.t.t.t.t.t.t.t.t.t.t.t.t.t.t.t.t.t.t.t.t.t.t.t.t.t.",
"t.t.t.t.t.t.t.t.t.t.t.t.t.t.t.t.t.t.t.t.t.t.t.t.t.t.t.t.t.t.t.t.t.t.t.t.t.t.t.t.t.t.t.t.t.t.t.t.t.t.t.t.t.t.t.t.t.t.t.t.t.t.t.t.",
"t.t.t.t.t.t.t.t.t.t.t.t.t.t.t.t.t.t.t.t.t.t.t.t.t.t.t.t.t.t.t.t.t.t.t.t.t.t.t.t.t.t.t.t.t.t.t.t.t.t.t.t.t.t.t.t.t.t.t.t.t.t.t.t.",
"t.t.t.t.t.t.t.t.t.t.t.t.t.L G t.t.t.t.t.t.t.t.t.t.t.t.t.t.t.t.t.t.t.t.t.t.t.t.t.t.t.t.t.t.t.t.t.t.t.t.t.t.t.t.t.t.t.t.t.t.t.t.t.",
"t.t.t.t.t.t.t.t.t.t.t.t.t.Q R K G L t.t.t.t.t.t.t.t.t.t.t.t.t.t.t.t.t.t.t.t.t.t.t.t.t.t.t.t.t.t.t.t.t.t.t.t.t.t.t.t.t.t.t.t.t.t.",
"t.t.t.t.t.t.t.t.t.t.t.t.+.6.8.8.:.M / U t.t.t.t.t.t.t.t.t.t.t.t.t.t.t.t.t.t.t.t.t.t.t.t.t.t.t.t.t.t.t.t.t.t.t.t.t.t.t.t.t.t.t.t.",
"t.t.t.t.t.t.t.t.t.t.t.t.` 0.8.2.X.} 3.3.>.<.) K I K I t.t.t.t.t.t.t.t.t.t.t.t.t.t.t.t.t.t.t.t.t.t.t.t.t.t.t.t.t.t.t.t.t.t.t.t.t.",
"t.t.t.t.t.t.t.t.t.t.t. .6.9.6.2.O.7.3.>.=.X.X.( L ( #.| I K t.t.t.t.t.t.t.t.t.t.t.t.t.t.t.t.t.t.t.t.t.t.t.t.t.t.t.t.t.t.t.t.t.t.",
"t.t.t.t.t.t.t.t.t.t.t.{ 0.9.2.#.) 3.2.*.$./ r.$ . . 3 y [ #.K K t.t.t.t.t.t.t.t.t.t.t.t.t.t.t.t.t.t.t.t.t.t.t.t.t.t.t.t.t.t.t.t.",
"t.t.t.t.t.t.t.t.t.t. .-.0.7.1.O.6.2.:.*.S q.7 . # # # .   7 / #.I I t.t.t.t.t.t.t.t.t.t.t.t.t.t.t.t.t.t.t.t.t.t.t.t.t.t.t.t.t.t.",
"t.t.t.t.t.t.t.t.t.t.+.9.8.0.@.) 3.1.*.#.#.i @ # o + # +   . . 7 W #.K K t.t.t.t.t.t.t.t.t.t.t.t.t.t.t.t.t.t.t.t.t.t.t.t.t.t.t.t.",
"t.t.t.t.t.t.t.t.t. .O.9.8.6.o.7.2.>.#./ e.  + @ # # # # + # # . . , ' @.I A t.t.t.t.t.t.t.t.t.t.t.t.t.t.t.t.t.t.t.t.t.t.t.t.t.t.",
"t.t.t.t.t.t.t.t.t.%.9.8.9.#.) 2.1.=.U *.7 @ # # # # # # # # o o # g 6 6 O./ I t.t.t.t.t.t.t.t.t.t.t.t.t.t.t.t.t.t.t.t.t.t.t.t.t.",
"t.t.t.t.t.t.t.t.X.[ 9.6.8. .7.2.:.%.O.O.+ # # + # # # # # # # X j l h g < Q #.K B t.t.t.t.t.t.t.t.t.t.t.t.t.t.t.t.t.t.t.t.t.t.t.",
"t.t.t.t.t.t.t.t.X.0.9.8.%.! 3.1.*.S O.3 # # o # # # # # # # # $ j h j j x d < #.G I t.t.t.t.t.t.t.t.t.t.t.t.t.t.t.t.t.t.t.t.t.t.",
"t.t.t.t.t.t.t.` ..9.8.2. .7.1.>.$.$.Z   o # # # # # # # # # O x j ( ] j j j s < ..H C t.t.t.t.t.t.t.t.t.t.t.t.t.t.t.t.t.t.t.t.t.",
"t.t.t.t.t.t.t.t.9.8.4.1._ 3.1.>.T | % o # # # # # # # # # # % j j J _ h g h z d = #.| S t.t.t.t.t.t.t.t.t.t.t.t.t.t.t.t.t.t.t.t.",
"t.t.t.t.t.t.t.t.9.8.3...7.2.>.$. .L   o # # # # # # # # # o j j x x j h R ] 0 s - #.{ $.t.t.t.t.t.t.t.t.t.t.t.t.t.t.t.t.t.t.t.t.",
"t.t.t.t.t.t.t.t.t.9.3.( 7.1.*.#.+.7 + o # # # # $ # # # # 3 j h x x j x x J v < ; +.( *.$.t.t.t.t.t.t.t.t.t.t.t.t.t.t.t.t.t.t.t.",
"t.t.t.t.t.t.t.t.t.:...5.3.<.*.I Q   . # # # # # # # # # O v j ` ) x h h j c h d A _ ` *.3.*.t.t.t.t.t.t.t.t.t.t.t.t.t.t.t.t.t.t.",
"t.t.t.t.t.t.t.t.t.t.t.6.3.*.&.#.3 + + + # # # # # # # # : j v F Y x a d x j d = $.' &.*.3.6.%.t.t.t.t.t.t.t.t.t.t.t.t.t.t.t.t.t.",
"t.t.t.t.t.t.t.t.t.t.t.t.6.*.(  .2 + # # # # # # # # # . j g j x x v E ) c h d & O.Q *.:.3.4.O.H t.t.t.t.t.t.t.t.t.t.t.t.t.t.t.t.",
"t.t.t.t.t.t.t.t.t.t.t.t.<.*.I Q   o + # # # # # # # # 4 g 6 c j x x > e v h < ( ( *.*.3.3.3.p 3.2.t.t.t.t.t.t.t.t.t.t.t.t.t.t.t.",
"t.t.t.t.t.t.t.t.t.t.t.t.t.,.O.r # + o # # # # # # # O j v ^ } x j f x x h d & #./ *.>.2.4.Q #.2.9.9._ t.t.t.t.t.t.t.t.t.t.t.t.t.",
"t.t.t.t.t.t.t.t.t.t.t.t.t.t.+.w . # # # # # + # # # 4 f g z 4 x 1 V f h d , I ( [ ;.1.2.2.u 7.4.8.9.9.R M % Z t.t.t.t.t.t.t.t.t.",
"t.t.t.t.t.t.t.t.t.t.t.t.t.t.] Q 2     + # # # # # X j h g j j j F ] > g d * $.~ ;.>.2.7.B -.1.8.9.9.B 2.8.} H M t.t.t.t.t.t.t.t.",
"t.t.t.t.t.t.t.t.t.t.t.t.t.t.t. . .7   o # + # # # 1 g h z j j g h d j d , U ~ { *.1.3.,.p 3.4.8.9.6.>.8.8.8.T ` K K t.t.t.t.t.t.",
"t.t.t.t.t.t.t.t.t.t.t.t.t.t.t.t.{ #.M # + # # @ X j j r D n 6 j j g g d - #.~ *.>.1.3.t *.9.8.9.9.P 2.8.9.R <.8.*.-.t.t.t.t.t.t.",
"t.t.t.t.t.t.t.t.t.t.t.t.t.t.t.t.t.t.#.S $   . @ d g < | { } j j f g g , O._ X.;.1.3.>.Y 0.4.9.0.&.<.7.9.0.E 6.0.6.*.t.t.t.t.t.t.",
"t.t.t.t.t.t.t.t.t.t.t.t.t.t.t.t.t.t.t.| #.B %   g j 0 } [ _ z g h d < i  .U -.<.2.7.y :.9.8.9.0.U 8.8.6.I 1.9.%.0.t.t.t.t.t.t.t.",
"t.t.t.t.t.t.t.t.t.t.t.t.t.t.t.t.t.t.t.t.t.O.( 9 < < d & 8 & j g g d = #.] *.*.2.3.*. .8.8.6.9.U 6.8.0.0.[ 7.8.8.;.t.t.t.t.t.t.t.",
"t.t.t.t.t.t.t.t.t.t.t.t.t.t.t.t.t.t.t.t.t.t.[ #.Q 9 < d g z j j g <  .-.o.*.1.3.5.y 1.8.9.9.9.[ 8.8.8.T 0.9.>.>.t.t.t.t.t.t.t.t.",
"t.t.t.t.t.t.t.t.t.t.t.t.t.t.t.t.t.t.t.t.t.t.t.t.[ #.( i 4 6 5 5 , C w.*.*.-.2.7.@.=.2.8.9.9.m 0.6.0.:.#.8.$.8.@.t.t.t.t.t.t.t.t.",
"t.t.t.t.t.t.t.t.t.t.t.t.t.t.t.t.t.t.t.t.t.t.t.t.t.t.[ O.#.B & = B &.r.%.;.3.3.3.u 2.7.8.9.6...7.9.8.L 8.6.6.$.t.t.t.t.t.t.t.t.t.",
"t.t.t.t.t.t.t.t.t.t.t.t.t.t.t.t.t.t.t.t.t.t.t.t.t.t.t.t.t.| #.#. .r.O.-.>.3.6.O.,.2.8.0.9.m 8.8.0.$.<.8...0.t.t.t.t.t.t.t.t.t.t.",
"t.t.t.t.t.t.t.t.t.t.t.t.t.t.t.t.t.t.t.t.t.t.t.t.t.t.t.t.t.t.t.t.t.t.t.*.3.6.4.I 3.8.8.8.*.-.7.9.8._ 8.8.8.%.t.t.t.t.t.t.t.t.t.t.",
"t.t.t.t.t.t.t.t.t.t.t.t.t.t.t.t.t.t.t.t.t.t.t.t.t.t.t.t.t.t.t.t.t.t.t.t.t.t.t.t.:.8.8.0.m 2.8.0._ ,.8.%.0.t.t.t.t.t.t.t.t.t.t.t.",
"t.t.t.t.t.t.t.t.t.t.t.t.t.t.t.t.t.t.t.t.t.t.t.t.t.t.t.t.t.t.t.t.t.t.t.t.t.t.t.t.t.t.t.t.:.8.8.7.-.8.=.8.-.t.t.t.t.t.t.t.t.t.t.t.",
"t.t.t.t.t.t.t.t.t.t.t.t.t.t.t.t.t.t.t.t.t.t.t.t.t.t.t.t.t.t.t.t.t.t.t.t.t.t.t.t.t.t.t.t.t.t.O.~ 3.7.>.1.t.t.t.t.t.t.t.t.t.t.t.t.",
"t.t.t.t.t.t.t.t.t.t.t.t.t.t.t.t.t.t.t.t.t.t.t.t.t.t.t.t.t.t.t.t.t.t.t.t.t.t.t.t.t.t.t.t.t.t.t.t.t.t.t.t.t.t.t.t.t.t.t.t.t.t.t.t.",
"t.t.t.t.t.t.t.t.t.t.t.t.t.t.t.t.t.t.t.t.t.t.t.t.t.t.t.t.t.t.t.t.t.t.t.t.t.t.t.t.t.t.t.t.t.t.t.t.t.t.t.t.t.t.t.t.t.t.t.t.t.t.t.t.",
"t.t.t.t.t.t.t.t.t.t.t.t.t.t.t.t.t.t.t.t.t.t.t.t.t.t.t.t.t.t.t.t.t.t.t.t.t.t.t.t.t.t.t.t.t.t.t.t.t.t.t.t.t.t.t.t.t.t.t.t.t.t.t.t.",
"t.t.t.t.t.t.t.t.t.t.t.t.t.t.t.t.t.t.t.t.t.t.t.t.t.t.t.t.t.t.t.t.t.t.t.t.t.t.t.t.t.t.t.t.t.t.t.t.t.t.t.t.t.t.t.t.t.t.t.t.t.t.t.t.",
"t.t.t.t.t.t.t.t.t.t.t.t.t.t.t.t.t.t.t.t.t.t.t.t.t.t.t.t.t.t.t.t.t.t.t.t.t.t.t.t.t.t.t.t.t.t.t.t.t.t.t.t.t.t.t.t.t.t.t.t.t.t.t.t.",
"t.t.t.t.t.t.t.t.t.t.t.t.t.t.t.t.t.t.t.t.t.t.t.t.t.t.t.t.t.t.t.t.t.t.t.t.t.t.t.t.t.t.t.t.t.t.t.t.t.t.t.t.t.t.t.t.t.t.t.t.t.t.t.t.",
"t.t.t.t.t.t.t.t.t.t.t.t.t.t.t.t.t.t.t.t.t.t.t.t.t.t.t.t.t.t.t.t.t.t.t.t.t.t.t.t.t.t.t.t.t.t.t.t.t.t.t.t.t.t.t.t.t.t.t.t.t.t.t.t.",
"t.t.t.t.t.t.t.t.t.t.t.t.t.t.t.t.t.t.t.t.t.t.t.t.t.t.t.t.t.t.t.t.t.t.t.t.t.t.t.t.t.t.t.t.t.t.t.t.t.t.t.t.t.t.t.t.t.t.t.t.t.t.t.t.",
"t.t.t.t.t.t.t.t.t.t.t.t.t.t.t.t.t.t.t.t.t.t.t.t.t.t.t.t.t.t.t.t.t.t.t.t.t.t.t.t.t.t.t.t.t.t.t.t.t.t.t.t.t.t.t.t.t.t.t.t.t.t.t.t.",
"t.t.t.t.t.t.t.t.t.t.t.t.t.t.t.t.t.t.t.t.t.t.t.t.t.t.t.t.t.t.t.t.t.t.t.t.t.t.t.t.t.t.t.t.t.t.t.t.t.t.t.t.t.t.t.t.t.t.t.t.t.t.t.t.",
"t.t.t.t.t.t.t.t.t.t.t.t.t.t.t.t.t.t.t.t.t.t.t.t.t.t.t.t.t.t.t.t.t.t.t.t.t.t.t.t.t.t.t.t.t.t.t.t.t.t.t.t.t.t.t.t.t.t.t.t.t.t.t.t.",
"t.t.t.t.t.t.t.t.t.t.t.t.t.t.t.t.t.t.t.t.t.t.t.t.t.t.t.t.t.t.t.t.t.t.t.t.t.t.t.t.t.t.t.t.t.t.t.t.t.t.t.t.t.t.t.t.t.t.t.t.t.t.t.t.",
"t.t.t.t.t.t.t.t.t.t.t.t.t.t.t.t.t.t.t.t.t.t.t.t.t.t.t.t.t.t.t.t.t.t.t.t.t.t.t.t.t.t.t.t.t.t.t.t.t.t.t.t.t.t.t.t.t.t.t.t.t.t.t.t.",
"t.t.t.t.t.t.t.t.t.t.t.t.t.t.t.t.t.t.t.t.t.t.t.t.t.t.t.t.t.t.t.t.t.t.t.t.t.t.t.t.t.t.t.t.t.t.t.t.t.t.t.t.t.t.t.t.t.t.t.t.t.t.t.t."
};
