/* XPM */
static char *cea0bb02fb044e6391d40dcaf3f2f0feDUBQRxzOLDRRiWEL[] = {
/* columns rows colors chars-per-pixel */
"64 64 205 2 ",
"   c #000000",
".  c #020101",
"X  c #0B0506",
"o  c #0B0A0A",
"O  c #0A0807",
"+  c #140301",
"@  c #120D0D",
"#  c #1D0E0C",
"$  c #13110D",
"%  c #19140F",
"&  c #170F10",
"*  c #0D1514",
"=  c #131211",
"-  c #1C1512",
";  c #171817",
":  c #1D1915",
">  c #1D1C1B",
",  c #161518",
"<  c #260C0B",
"1  c #23110E",
"2  c #30110E",
"3  c #241313",
"4  c #2C1413",
"5  c #211B16",
"6  c #231D1A",
"7  c #291F1D",
"8  c #341414",
"9  c #37191A",
"0  c #370D0F",
"q  c #26221D",
"w  c #29211D",
"e  c #3B1B20",
"r  c #252322",
"t  c #2D2522",
"y  c #2C2926",
"u  c #2C2729",
"i  c #2D2B2A",
"p  c #322623",
"a  c #342B24",
"s  c #392D25",
"d  c #352E2A",
"f  c #3C2E2B",
"g  c #3A3126",
"h  c #33302C",
"j  c #3C332C",
"k  c #3F382B",
"l  c #363432",
"z  c #3B3432",
"x  c #3C3A36",
"c  c #3C3A39",
"v  c #343538",
"b  c #491A1A",
"n  c #531518",
"m  c #6C1C1F",
"M  c #49211F",
"N  c #542219",
"B  c #6C2A1F",
"V  c #691F20",
"C  c #562221",
"Z  c #43352F",
"A  c #42392E",
"S  c #403531",
"D  c #453A33",
"F  c #4A3D35",
"G  c #423E3C",
"H  c #4A3F38",
"J  c #6C2423",
"K  c #622928",
"L  c #742B29",
"P  c #782828",
"I  c #79302F",
"U  c #6D3C3A",
"Y  c #783C37",
"T  c #44413C",
"R  c #4D413A",
"E  c #494037",
"W  c #52453E",
"Q  c #514037",
"!  c #784439",
"~  c #68423A",
"^  c #3E3F41",
"/  c #434443",
"(  c #4C4B4B",
")  c #4A4546",
"_  c #534B45",
"`  c #584E47",
"'  c #534C47",
"]  c #58524B",
"[  c #555049",
"{  c #5E4A50",
"}  c #545453",
"|  c #595654",
" . c #694445",
".. c #625E5B",
"X. c #645956",
"o. c #7D5954",
"O. c #63615F",
"+. c #676463",
"@. c #6A6563",
"#. c #6F6C6B",
"$. c #746D6A",
"%. c #797572",
"&. c #7C7977",
"*. c #7C7C7B",
"=. c #737272",
"-. c #77706C",
";. c #862929",
":. c #912C2B",
">. c #9C2E2D",
",. c #8E322F",
"<. c #93322F",
"1. c #883231",
"2. c #943332",
"3. c #9B3433",
"4. c #9C3D3B",
"5. c #A33433",
"6. c #AC3837",
"7. c #A43A3A",
"8. c #AB3B3B",
"9. c #AA3735",
"0. c #B43C3B",
"q. c #BA3E3C",
"w. c #B33A37",
"e. c #C13F3E",
"r. c #80453E",
"t. c #85513F",
"y. c #A8423F",
"u. c #B4413E",
"i. c #BD413E",
"p. c #C1413F",
"a. c #AE3F40",
"s. c #854545",
"d. c #974645",
"f. c #855747",
"g. c #985442",
"h. c #9A4F50",
"j. c #965150",
"k. c #AA4747",
"l. c #B54343",
"z. c #BB4342",
"x. c #BC4A49",
"c. c #A85252",
"v. c #BC5858",
"b. c #986A56",
"n. c #A86B54",
"m. c #AF7A5F",
"M. c #B86E58",
"N. c #997363",
"B. c #937170",
"V. c #827D7A",
"C. c #B56363",
"Z. c #B07E62",
"A. c #A67963",
"S. c #C54443",
"D. c #CA4443",
"F. c #CD4C4B",
"G. c #C44A48",
"H. c #D34B4A",
"J. c #DC4C4A",
"K. c #D74644",
"L. c #CE5857",
"P. c #DC5352",
"I. c #D55554",
"U. c #E14D4A",
"Y. c #E34A46",
"T. c #E3504F",
"R. c #EC504F",
"E. c #ED5451",
"W. c #E25957",
"Q. c #F95552",
"!. c #F75654",
"~. c #C8795D",
"^. c #EB675F",
"/. c #FF645F",
"(. c #C66D6C",
"). c #CD7D65",
"_. c #C47272",
"`. c #F26E62",
"'. c #CC8465",
"]. c #C78063",
"[. c #D68B69",
"{. c #DC8B6C",
"}. c #D78566",
"|. c #DC916F",
" X c #CA8372",
".X c #DF9072",
"XX c #E18D6D",
"oX c #FF9D6A",
"OX c #E98F71",
"+X c #E19372",
"@X c #FD9B74",
"#X c #FFB574",
"$X c #FFA978",
"%X c #FFC57C",
"&X c #FFCD7E",
"*X c #FFC074",
"=X c #92908F",
"-X c #D78585",
";X c #D59480",
":X c #EE9292",
">X c #FF8684",
",X c #CFA09F",
"<X c #FDA882",
"1X c #FABFAC",
"2X c #FBC7B9",
/* pixels */
"                                                              $.X.-.                                                            ",
"                                                            ` W W W _                                                           ",
"                                                          ` W R W W Q R                                                         ",
"                                                        -._ W _ W W Q H                                                         ",
"                                                        s D.[.<XH X.H D                         (                               ",
"                                          >X/.Q.!.^.^.h.8.5.n.M.g.@X~.$.                          c                             ",
"                                        :XQ.Q.Q.Q.Q.E.c.,.<.b.A.Z.m.Y 9                       l                                 ",
"                                        E.!.oX&X<XOXE.L.J ;.J.N.+ + e 9                     l y l                               ",
"                                        J.Y.$X%X`.&X^.I.d.J 2.N.f.~ )                 / ( / r q                                 ",
"                                        w.J.@X#X*X#XJ.J.x.C J o.o.    y.  ( ) / ^ G l . . r r                                   ",
"                                        Y.P.R.K.T.T.W._.H.y.b K.9  .q.V.*.*.*.&.&.&.( O.| *.=.                                  ",
"                                        e.I.e.J.P.W.P.C.J.D.P D.3.0 l l l l l v v l c c c i . .                                 ",
"                                        e.T.e.H.I.F.L.-XU.J.H.=.{ ..$ = @ $ @ = o = ; ; = = o o                                 ",
"                                        S.p.q.F.F.S.-Xc.(._.(._.,Xu O.. ; . . . . O . . X o l (                                 ",
"                                        G.D.w.S.G.G.S.i.q.q.l.8.8.d.C.h.( [ 2X2X| / = > ^                                       ",
"                                      >.x.S.w.p.S.D.D.S.q.q.u.8.7.2.6.2.[.+X{.XX{.;X                                            ",
"                                      v.x.z.:.0.p.p.q.q.0.0.0.6.5.3.y.b.|.+XXXXX'.).                                            ",
"                                      7.5.0.6.5.q.w.w.9.w.6.5.>.3.<.,.'.|..X{.}.~. X                                            ",
"                                      I 1.=Xd f V P ;.:.5.5.5.;.;.2.3.].|..X}.'.M.1.                                            ",
"                                    l t a a s s j S n B n n n n m  XOXf.].'.'.~.g.                                              ",
"                                    t t p p w & L ,.2.) d 7.7.5.>.U F ).'.Q ! !                                                 ",
"                                  ( i = L c x / ~ 2.3.9.,.6.L / ..S + < n.t.N                                                   ",
"                                } i y h j G T G G T T G G . @.| S j p _ < ! I                                                   ",
"                              | > r u d c h q 2.L L K . . O.x j s d D V.@.8 n                                                   ",
"                              r > u r > 3.l.a.u.i.a.l.# . d t p t w R H %.8 ;.                                                  ",
"                              r h y y ! 7.u.l.z.i.q.z.,.= r t t h p p H ] 2 P                                                   ",
"                              h c i  . .8.l.z.z.q.i.S.q.d 7 w | j d w Z D 0                                                     ",
"                            i c h i f.s.k.l.z.i.q.i.q.i.q 7 w t w h D D D H                                                     ",
"                            c / 6 > o.s.a.z.i.S.z.q.z.p.5 q w s p s j j f s                                                     ",
"                            / 6 >   o.k.l.x.p.q.S.z.i.i.: q t a w w q $ w                                                       ",
"                              :   B.d.a.l.S.z.e.q.i.z.q.5 7 t 6 k A T : 8                                                       ",
"                                  j.l.l.i.q.D.X p s 7 ; 6 w 3 $ g A D : C M                                                     ",
"                                  k.z.3.6 6 7 a g s = - 7 & @ O g k w 5 b                                                       ",
"                                c.w.i u h f z j a 6 - 6 & o . . 1 k 5 g                                                         ",
"                                2 d z S S D D j w o - @ @ = 1 3 O.E y                                                           ",
"                                < p S D H H A j 7 o * , - 3 3 4 ..[ #.  : ; @.                                                  ",
"                                < p S H H H Z a 6 3 4 4 8 9 b   D %.} . i r i                                                   ",
"                                  9 D D H Q Z t 5 b b           _ ( . . r u u                                                   ",
"                                    [ H F H k t                 O O . . . . o                                                   ",
"                                    a D F F z p               > . . . . .                                                       ",
"                                    H H H D s p               . . . .                                                           ",
"                                    Z D D Z s p               . . .                                                             ",
"                                    ) Z A j p t                                                                                 ",
"                                    D A D j p s                                                                                 ",
"                                    F D H Z p s                                                                                 ",
"                                    F F D j a s                                                                                 ",
"                                    H H H a s d p                                                                               ",
"                                    p s D j h l G                                                                               ",
"                                    D D F S p :                                                                                 ",
"                                        a 5 - g                                                                                 ",
"                                        s : j k                                                                                 ",
"                                          : - j                                                                                 ",
"                                          a 5 j                                                                                 ",
"                                            5 A &.                                                                              ",
"                                            5 h k                                                                               ",
"                                            a 5 ] @.                                                                            ",
"                                            : 5 k @.                                                                            ",
"                                              > D D                                                                             ",
"                                              q w [ }                                                                           ",
"                                              p 6 D .                                                                           ",
"                                              j l T                                                                             ",
"                                            +.l y l /                                                                           ",
"                                            > 5 % $ =                                                                           ",
"                                            O . . .                                                                             "
};
