/* XPM */
static char *_d62880597fb4333f38b64a0ace43a18Xce4IHLgJ2JB54QC[] = {
/* columns rows colors chars-per-pixel */
"64 64 205 2 ",
"   c #000000",
".  c #020101",
"X  c #0B0506",
"o  c #0B0A0A",
"O  c #0A0807",
"+  c #140301",
"@  c #120D0D",
"#  c #1D0E0C",
"$  c #13110D",
"%  c #19140F",
"&  c #170F10",
"*  c #0D1514",
"=  c #131211",
"-  c #1C1512",
";  c #171817",
":  c #1D1915",
">  c #1D1C1B",
",  c #161518",
"<  c #260C0B",
"1  c #23110E",
"2  c #30110E",
"3  c #241313",
"4  c #2C1413",
"5  c #211B16",
"6  c #231D1A",
"7  c #291F1D",
"8  c #341414",
"9  c #37191A",
"0  c #370D0F",
"q  c #26221D",
"w  c #29211D",
"e  c #3B1B20",
"r  c #252322",
"t  c #2D2522",
"y  c #2C2926",
"u  c #2C2729",
"i  c #2D2B2A",
"p  c #322623",
"a  c #342B24",
"s  c #392D25",
"d  c #352E2A",
"f  c #3C2E2B",
"g  c #3A3126",
"h  c #33302C",
"j  c #3C332C",
"k  c #3F382B",
"l  c #363432",
"z  c #3B3432",
"x  c #3C3A36",
"c  c #3C3A39",
"v  c #343538",
"b  c #491A1A",
"n  c #531518",
"m  c #6C1C1F",
"M  c #49211F",
"N  c #542219",
"B  c #6C2A1F",
"V  c #691F20",
"C  c #562221",
"Z  c #43352F",
"A  c #42392E",
"S  c #403531",
"D  c #453A33",
"F  c #4A3D35",
"G  c #423E3C",
"H  c #4A3F38",
"J  c #6C2423",
"K  c #622928",
"L  c #742B29",
"P  c #782828",
"I  c #79302F",
"U  c #6D3C3A",
"Y  c #783C37",
"T  c #44413C",
"R  c #4D413A",
"E  c #494037",
"W  c #52453E",
"Q  c #514037",
"!  c #784439",
"~  c #68423A",
"^  c #3E3F41",
"/  c #434443",
"(  c #4C4B4B",
")  c #4A4546",
"_  c #534B45",
"`  c #584E47",
"'  c #534C47",
"]  c #58524B",
"[  c #555049",
"{  c #5E4A50",
"}  c #545453",
"|  c #595654",
" . c #694445",
".. c #625E5B",
"X. c #645956",
"o. c #7D5954",
"O. c #63615F",
"+. c #676463",
"@. c #6A6563",
"#. c #6F6C6B",
"$. c #746D6A",
"%. c #797572",
"&. c #7C7977",
"*. c #7C7C7B",
"=. c #737272",
"-. c #77706C",
";. c #862929",
":. c #912C2B",
">. c #9C2E2D",
",. c #8E322F",
"<. c #93322F",
"1. c #883231",
"2. c #943332",
"3. c #9B3433",
"4. c #9C3D3B",
"5. c #A33433",
"6. c #AC3837",
"7. c #A43A3A",
"8. c #AB3B3B",
"9. c #AA3735",
"0. c #B43C3B",
"q. c #BA3E3C",
"w. c #B33A37",
"e. c #C13F3E",
"r. c #80453E",
"t. c #85513F",
"y. c #A8423F",
"u. c #B4413E",
"i. c #BD413E",
"p. c #C1413F",
"a. c #AE3F40",
"s. c #854545",
"d. c #974645",
"f. c #855747",
"g. c #985442",
"h. c #9A4F50",
"j. c #965150",
"k. c #AA4747",
"l. c #B54343",
"z. c #BB4342",
"x. c #BC4A49",
"c. c #A85252",
"v. c #BC5858",
"b. c #986A56",
"n. c #A86B54",
"m. c #AF7A5F",
"M. c #B86E58",
"N. c #997363",
"B. c #937170",
"V. c #827D7A",
"C. c #B56363",
"Z. c #B07E62",
"A. c #A67963",
"S. c #C54443",
"D. c #CA4443",
"F. c #CD4C4B",
"G. c #C44A48",
"H. c #D34B4A",
"J. c #DC4C4A",
"K. c #D74644",
"L. c #CE5857",
"P. c #DC5352",
"I. c #D55554",
"U. c #E14D4A",
"Y. c #E34A46",
"T. c #E3504F",
"R. c #EC504F",
"E. c #ED5451",
"W. c #E25957",
"Q. c #F95552",
"!. c #F75654",
"~. c #C8795D",
"^. c #EB675F",
"/. c #FF645F",
"(. c #C66D6C",
"). c #CD7D65",
"_. c #C47272",
"`. c #F26E62",
"'. c #CC8465",
"]. c #C78063",
"[. c #D68B69",
"{. c #DC8B6C",
"}. c #D78566",
"|. c #DC916F",
" X c #CA8372",
".X c #DF9072",
"XX c #E18D6D",
"oX c #FF9D6A",
"OX c #E98F71",
"+X c #E19372",
"@X c #FD9B74",
"#X c #FFB574",
"$X c #FFA978",
"%X c #FFC57C",
"&X c #FFCD7E",
"*X c #FFC074",
"=X c #92908F",
"-X c #D78585",
";X c #D59480",
":X c #EE9292",
">X c #FF8684",
",X c #CFA09F",
"<X c #FDA882",
"1X c #FABFAC",
"2X c #FBC7B9",
/* pixels */
"                                                            -.O.$.                                                              ",
"                                                          W W W W `                                                             ",
"                                                        W R R W W W `                                                           ",
"                                                        E R R W W W ` -.                                                        ",
"                              )                         F H ..E <X[.D.f                                                         ",
"                            G                           -.~.@Xy.M.n.3.7.h.^./.!.!./.>X                                          ",
"                                l                       9 Y m.Z.A.b.,.,.h.E.!.!.Q.Q.Q.:X                                        ",
"                              l y l                     9 e X + N.J.;.L L.E.`.&X&XoXQ.E.                                        ",
"                                r r / ( /                 ) ~ o.N.2.K s.I.`.%X`.&X$XY.J.                                        ",
"                                  r q O . h G ^ / ) (   y.    o.f.L C x.J.H.#X#X#X@XJ.w.                                        ",
"                                  %.*.} O.( &.%.*.*.*.*.*.i. .9 K.b a.H._.T.T.J.K.R.J.Y.                                        ",
"                                . . i c c c l v v v l l l l 0 3.D.P H.U.C.W.W.T.H.S.I.p.                                        ",
"                                o o = = ; = = = @ = @ $ @ $ X.{ =.H.Y.U.-XL.F.L.H.p.P.e.                                        ",
"                                ( h o O . O . . . . . ; . O.u ,X(.(._.(.c.-XG.F.D.q.D.z.                                        ",
"                                      / > = / | 2X2X} ) h.C.d.8.7.q.q.q.q.S.S.F.D.w.D.G.                                        ",
"                                            .X}.XX|..X[.2.8.2.7.a.a.a.q.D.D.D.S.S.6.S.x.>.                                      ",
"                                            ~.}.{.XX+X|.b.7.3.5.8.w.w.q.q.q.e.p.0.:.u.x.v.                                      ",
"                                             X).[.XX+X|.'.<.<.3.5.5.6.w.9.w.0.0.5.8.0.3.7.                                      ",
"                                            Y M.'.}.|.XX'.<.3.;.:.3.5.5.:.;.P m f s =X1.I                                       ",
"                                              t.~.'.'.~.f.OX Xm b n n n B n z z d s s s t d                                     ",
"                                                r.! Q '.).F U 3.5.9.7.i ) <.,.L & 7 a a y r                                     ",
"                                                  b f.n.< + Z ..T L 6.<.7.3.2.U T D c L ; i (                                   ",
"                                                  I ! < _ p h S | @.. G T T T T c T G l i i u }                                 ",
"                                                  n 8 +.V.D s s j x O.. . K L L 2.7 d c h i > > |                               ",
"                                                  :.0 -.H R w p p p d . & u.u.z.z.a.0.4.: r u > r                               ",
"                                                  P 2 ] H p y d t t t = <.i.u.q.z.z.l.7.Y y u h y                               ",
"                                                    0 D S t s j | w w d q.p.u.e.z.z.u.y.o. .u c h                               ",
"                                                    F D A Z d t w w q q p.e.u.q.i.z.u.k.1.o.u l c u                             ",
"                                                    s f j j g a f w 6 5 p.z.i.z.p.S.z.l.d.o.> 6 / c                             ",
"                                                      r $ 6 w w a t w 5 p.i.i.i.a.e.z.l.k.o.  : > )                             ",
"                                                      8 - T A k 5 t 7 5 e.a.z.p.e.z.S.z.a.d.B.  :                               ",
"                                                    M C 5 A A g & 3 w 6 ; q s p X D.e.a.a.k.j.                                  ",
"                                                      b : w k g O o & 7 - = a s p r 6 > 3.z.l.                                  ",
"                                                        j : k 1 . O o & 7 - 7 s j j z d t u 0.c.                                ",
"                                                          y E O.3 < * @ @ - o w j D F S S z l <                                 ",
"                                                  @.; :   #.[ O.4 3 # - , * O w j D F F D S t <                                 ",
"                                                  i r i . } %.D   b 8 9 4 4 3 7 p A H H D D a <                                 ",
"                                                  i u r . . ( _           b 9 3 t Z Q F H D 9                                   ",
"                                                  o . . . . O O                 t j H H D [                                     ",
"                                                      . . . . . >               p Z F H F a                                     ",
"                                                          . . . .               p d A H F E                                     ",
"                                                            . . .               p s Z F D S                                     ",
"                                                                                t a j A Z R                                     ",
"                                                                                p a j F Z F                                     ",
"                                                                                s a z F D H                                     ",
"                                                                                s a f D F H                                     ",
"                                                                              y d d s F F H                                     ",
"                                                                              / j f g F s p                                     ",
"                                                                                : p S D D F                                     ",
"                                                                                s : 3 a                                         ",
"                                                                                k j - s                                         ",
"                                                                                j : :                                           ",
"                                                                                k : p                                           ",
"                                                                              &.k :                                             ",
"                                                                              A h 5                                             ",
"                                                                            @.] 6 a                                             ",
"                                                                            @.k : :                                             ",
"                                                                            D A 6                                               ",
"                                                                          } [ q 6                                               ",
"                                                                          . D 7 a                                               ",
"                                                                            G l h                                               ",
"                                                                          / l y l +.                                            ",
"                                                                          = % % : >                                             ",
"                                                                            . . . o                                             "
};
