/* XPM */
static char *fd3df56f26514155e3f4ad541d7ce02dlZz9DSDWmTI7sH51[] = {
/* columns rows colors chars-per-pixel */
"64 64 95 2 ",
"   c #000000",
".  c #000000",
"X  c #000000",
"o  c #000000",
"O  c #000000",
"+  c #000000",
"@  c #000000",
"#  c #000000",
"$  c #000000",
"%  c #000000",
"&  c #000000",
"*  c #000000",
"=  c #000000",
"-  c #000000",
";  c #000000",
":  c #000000",
">  c #000000",
",  c #000000",
"<  c #000000",
"1  c #000000",
"2  c #000000",
"3  c #000000",
"4  c #000000",
"5  c #000000",
"6  c #000000",
"7  c #000000",
"8  c #000000",
"9  c #000000",
"0  c #000000",
"q  c #000000",
"w  c #000000",
"e  c #000000",
"r  c gold",
"t  c #000000",
"y  c #000000",
"u  c #000000",
"i  c #000000",
"p  c #000000",
"a  c #000000",
"s  c #000000",
"d  c #000000",
"f  c #000000",
"g  c #000000",
"h  c #000000",
"j  c #000000",
"k  c #000000",
"l  c #000000",
"z  c #000000",
"x  c #000000",
"c  c #000000",
"v  c #000000",
"b  c #000000",
"n  c #000000",
"m  c #000000",
"M  c #000000",
"N  c #000000",
"B  c #000000",
"V  c #000000",
"C  c #000000",
"Z  c #000000",
"A  c #000000",
"S  c #000000",
"D  c #000000",
"F  c #000000",
"G  c #000000",
"H  c #000000",
"J  c #000000",
"K  c #000000",
"L  c #000000",
"P  c #000000",
"I  c #000000",
"U  c #000000",
"Y  c #000000",
"T  c #000000",
"R  c #000000",
"E  c #000000",
"W  c #000000",
"Q  c #000000",
"!  c #000000",
"~  c #000000",
"^  c #000000",
"/  c #000000",
"(  c #000000",
")  c #000000",
"_  c #000000",
"`  c #000000",
"'  c #000000",
"]  c #000000",
"[  c ##000000",
"{  c #000000",
"}  c #000000",
"|  c #000000",
" . c #000000",
".. c #000000",
"X. c #000000",
/* pixels */
"X./ / X.X./ / X.X./ / X.X./ / X.X./ / X.X./ / X.X./ / X.X.l / X.X./ / X.X./ / X.X./ ` X.{ ` ] X.] / { X.' ` | X.` / X.X./ / X.X.",
"X./ / X.X./ / X.X./ / X.X./ / X.X./ / X.X./ / X.X./ / X.X.r r X.X./ / X.X./ / X.| / ' X.{ / ] X.{ / { X.' / | X.` / X.X./ / X.X.",
"/ X.X./ / X.X./ / X.X./ / X.X./ / X.X./ / X.X./ / X.X./ ' r r r r X.X./ / X.X./ ` X.| / ] X.{ / ] X.] / { X.` / X.X./ / X.X./ / ",
"/ X.X./ / X.X./ / X.X./ / X.X./ / X.X./ / X.X./ / X.X./ ' r r r r r { / / X.X./ ` X.| / ' X.{ / { X.] / | X.' / | X./ / X.X./ / ",
"X./ / X.X./ / X.X./ / X.X./ / X.X./ / X.X./ / X.X./ / X.X.r r r r r r r X./ / X.X./ ` X.| / ] X.] ` { X.' / | X.` / X.X./ / X.X.",
"X./ / X.X./ / X.X./ / X.X./ / X.X./ / X.X./ / X.X.X.r r r r r r r r r r r X / X.| / ' X.{ / ] X.] / { X.' / | X.` / X.X./ / X.X.",
"/ X.X./ / X.X./ / X.X./ / X.X./ / X.X./ / X.K r r r r r r r r r r r r r r r r ] ` X.| / ' X.{ / { X.] / | X.` / | X./ / X.X./ / ",
"/ X.X./ / X.X./ / X.X./ / X.X./ / X.X./ r r r r r r r r r r r r r r r r r r r r 8 X.| / ' X.{ / { X.] / | X.' / X.X./ / X.X./ / ",
"X./ / X.X./ / X.X./ / X.X./ / X.X./ 1 r r r r r r r r r r r r r r r r r r r r r 9 / ' X.| / ] X.] / { X.' / | X.` / X.X./ / X.X.",
"X./ / X.X./ / X.X./ / X.X./ / X.{ r r r r r r r r r r r r r r r r r r r r r r X.| / ' X.{ r r X.{ / { X.' / | X.` / X.X./ / X.X.",
"/ X.X./ / X.X./ / X.X./ / X.X.y r r r r r r r r r r r r r r r r r r r r r z X./ ` X.| S r r r r n X.] / | X.` / | X./ / X.X./ / ",
"/ X.X./ / X.X./ / X.X./ / X.r r r r r r r r r r r r r r f r r r r r r r / X.X./ ` X.r r r r r r r 0 ' / | X.` / X.X./ / X.X./ / ",
"X./ / X.X./ / X.X./ / X.X.r r r r r r r r r r r r ` / X.X.r r r r r Q X.X./ / X.u r r r r r r r r r r X.' ` | X./ / X.X./ / X.X.",
"X./ / X.X./ / X.X./ / X.r r r r r r r r r r N X.X./ / X.X.r r r : / / X.X./ / X.| g r r r r r r r r r r ' / | X.` / X.X./ / X.X.",
"/ X.X./ / X.X./ / X.X.r r r r r r r r r r X.X./ / X.X./ ' r r ] / X.X./ / X.X./ ` X.| r r r r r r r r r 0 X.` / X.X./ / X.X./ / ",
"/ X.X./ / X.X./ / X.y r r r r r r r r W / X.X./ / X.X./ ' c X./ / X.X./ / X.X./ ` X.| / P r r r r r r r r n ` / | X./ / X.X./ / ",
"X./ / X.X./ / X.X.~ r r r r r r r r / X.X./ / X.X./ / X.X./ / X.X./ / X.X./ / X.| / ' X.| ' r r r r r r r r X.X.` / X.X./ / X.X.",
"X./ / X.X./ / X.X.r r r r r r r r ` / X.X./ / X.X./ / X.X./ / X.X./ / X.X./ / X.X./ ' X.| ` { r r r r r r r r X.` / X.X./ / X.X.",
"/ X.X./ / X.X./ - r r r r r r r / X.X./ / X.X./ / X.X./ / X.r r r r X./ / X.X./ ` X.| / ` X.{ ] r r r r r r r + | X./ / X.X./ / ",
"/ X.X./ / X.X./ r r r r r r r ^ / X.X./ / X.X./ / X.X./ / X.r r r r X./ / X.X./ ` X.| / ' X.{ / L r r r r r r r X.X./ / X.X./ / ",
"X./ / X.X./ / r r r r r r r < X.X./ / X.X./ / X.X./ / X.X./ r r r r / X.X./ / X.| / ' X.{ / ] X.] r r r r r r r   / X.X./ / X.X.",
"X./ / X.X./ / r r r r r r r / X.X./ / X.X./ / X.X./ / X.X.O r r r r r r i ] ` X.| / ' X.| / ] X.] / r r r r r r r / X.X./ / X.X.",
"/ X.X./ / X.M r r r r r r G X./ / X.X./ / X.X./ / X.X.r r r r r r r r r r r . / ` X.| / ' X.{ / { X.7 r r r r r r W / / X.X./ / ",
"/ X.X./ / X.r r r r r r r X.X./ / X.X./ / X.X./ / X.r r r r r r r r r r r r X./ ` X.| / ' X.{ / { X.] r r r r r r r / / X.X./ / ",
"X./ / X.X./ r r r r r r @ / / X.X./ / X.X./ / X.X.r r r r r r r r r r r r r / X.X./ ` X.{ ` ] X.] / [ r r r r r r r X.X./ / X.X.",
"X./ / X.X.Y r r r r r r X./ / X.X./ / X.X./ / X.X.r r r r r ) X.X./ / X.e r / X.| / ' X.{ / ] X.[ / [ X.r r r r r r X.X./ / X.X.",
"/ X.X./ / r r r r r r r / X.X./ / X.X./ / X.X./ J r r r r r X./ / X.X./ / X.X./ ` X.| / ] X.{ / [ X.] / r r r r r r r / X.X./ / ",
"/ X.X./ / r r r r r r > / X.X./ / X.X./ / X.X./ V r r r r r X./ / X.X./ / X.X./ ` X.| / ' X.{ / ] X.] / r r r r r r r / X.X./ / ",
"X./ / X.X.r r r r r r E X./ / X.X./ / X.X./ / X.~ r r r r r r X.X./ / X.X./ / X.X./ ` X.| / ] X.{ / { X.s r r r r r r X./ / X.X.",
"X./ / X.X.r r r r r r X.X./ / X.X./ / X.X./ / X.X.r r r r r r r r W / X.X./ / X.| / ' X.{ / ] X.] ` { X.I r r r r r r X./ / X.X.",
"/ X.X./ / r r r r r r / / X.X./ / X.X./ / X.X./ / m r r r r r r r r r 6 / X.X./ ` X.| / ' X.{ / ] X.] / } r r r r r r / X.X./ / ",
"/ X.X./ ' r r r r r r / / X.X./ / X.X./ / X.X./ / X.v r r r r r r r r r r ` X./ ` X.| ` ' X.{ / { X.] / } r r r r r r / X.X./ / ",
"X./ / X.X.r r r r r r X.X./ / X.X./ / X.X./ / X.X./ / X.r r r r r r r r r r ` X.X./ ` X.{ ` ] X.] / { X.| r r r r r r X./ / X.X.",
"X./ / X.X.r r r r r r X.X./ / X.X./ / X.X./ / X.X./ / X.X./ 5 r r r r r r r r X.| / ' X.{ / ] X.{ / { X.X.r r r r r r X./ / X.X.",
"/ X.X./ / r r r r r r { / X.X./ / X.X./ / X.X./ / X.X./ / X.X./ ! r r r r r r ! ` X.| / ] X.{ / ] X.] / U r r r r r r / X.X./ / ",
"/ X.X./ / r r r r r r H / X.X./ / X.X./ / X.X./ / X.X./ / X.X./ / X.r r r r r h ` X.| / ' X.{ / { X.] / a r r r r r r / X.X./ / ",
"X./ / X.X.r r r r r r > X./ / X.X./ / X.X./ / X.X./ / X.X./ / X.X./ r r r r r h X./ ` X.| / ] X.] ` { X.r r r r r r r X./ / X.X.",
"X./ / X.X.r r r r r r r X./ / X.X./ / X.X./ / X.X.r ` X.X./ / X.X./ r r r r r R | / ' X.{ / ] X.] / { X.r r r r r r * X./ / X.X.",
"/ X.X./ / T r r r r r r ` X.X./ / X.X./ / X.X./ / r r r % | X./ Y r r r r r r / ` X.| / ' X.{ / { X.] ' r r r r r r [ / X.X./ / ",
"/ X.X./ / X.r r r r r r o X.X./ / X.X./ / X.X./ ' r r r r r r r r r r r r r ; / ` X.| ` ' X.{ / { X.] r r r r r r r / / X.X./ / ",
"X./ / X.X./ r r r r r r r / / X.X./ / X.X./ / X.B r r r r r r r r r r r r t / X.| / ` X.{ / ] X.] / [ r r r r r r r X.X./ / X.X.",
"X./ / X.X./ x r r r r r r F / X.X./ / X.X./ / X.] r r r r r r r r r r r ^ / ` X.X./ ` X.| / ] X.[ ` 4 r r r r r r U X.X./ / X.X.",
"/ X.X./ / X.X.r r r r r r r X./ / X.X./ / X.X./ / X.X.' p , r r r # X./ / X.X./ ` X.| / ' X.{ / { X.r r r r r r r X./ / X.X./ / ",
"/ X.X./ / X.X.r r r r r r r < / / X.X./ / X.X./ / X.X./ / X.r r r A X./ / X.X./ ` X.| / ' X.{ / ] r r r r r r r & X./ / X.X./ / ",
"X./ / X.X./ / X.r r r r r r r ] X./ / X.X./ / X.X./ / X.X./ r r r Z / X.X./ / X.| / ' X.{ ` ] X.D r r r r r r r ` / X.X./ / X.X.",
"X./ / X.X./ / X.- r r r r r r r X./ / X.X./ / X.X./ / X.X./ r r r Z / X.X./ / X.X./ ` X.{ / ] X.r r r r r r r $ ` / X.X./ / X.X.",
"/ X.X./ / X.X./ / r r r r r r r r X.X./ / X.X./ / X.X./ / X.X./ / X.X./ / X.X./ ` X.| / ] X.| r r r r r r r r / ..X./ / X.X./ / ",
"/ X.X./ / X.X./ / ' r r r r r r r r X./ / X.X./ / X.X./ / X.X./ / X.X./ / X.X./ ` X.| / ' X.r r r r r r r r ` / ..X./ / X.X./ / ",
"X./ / X.X./ / X.X./ y r r r r r r r r ` X./ / X.X./ / X.X./ / X.X./ = X.X./ / X.| / ' X.K r r r r r r r r n | X.` / X.X./ / X.X.",
"X./ / X.X./ / X.X./ / r r r r r r r r r r / / X.X./ / X.X./ / X.| r r X.X./ / X.X./ ' r r r r r r r r r 0 / | X.` / X.X./ / X.X.",
"/ X.X./ / X.X./ / X.X./ r r r r r r r r r r S / / X.X./ ` X.X.r r r r / / X.X./ ` 7 r r r r r r r r r r { X.` / X.X./ / X.X./ / ",
"/ X.X./ / X.X./ / X.X./ / r r r r r r r r r r k / X.X./ ` K r r r r r / / X.X.r r r r r r r r r r r r ` | X.' / | X./ / X.X./ / ",
"X./ / X.X./ / X.X./ / X.X./ r r r r r r r r / X.X./ / X.r r r r r r r d r r r r r r r r r r r r r 0 { X.' / | X.` / X.X./ / X.X.",
"X./ / X.X./ / X.X./ / X.X./ / 2 r r r r ] / / X.X./ 3 r r r r r r r r r r r r r r r r r r r r r j / { X.' / | X.` / X.X./ / X.X.",
"/ X.X./ / X.X./ / X.X./ / X.X./ ` r q / / X.X./ / r r r r r r r r r r r r r r r r r r r r r r ` [ X.] / | X.` / X.X./ / X.X./ / ",
"/ X.X./ / X.X./ / X.X./ / X.X./ / X.X./ / X.X.r r r r r r r r r r r r r r r r r r r r r r $ { / ] X.] / | X.' / | X./ / X.X./ / ",
"X./ / X.X./ / X.X./ / X.X./ / X.X./ / X.X./ / r r r r r r r r r r r r r r r r r r r r & { ` ] X.] / { X.' / | X.` / X.X./ / X.X.",
"X./ / X.X./ / X.X./ / X.X./ / X.X./ / X.X./ / X.] r r r r r r r r r r r r r r r r Y ' X.{ / ] X.{ / { X.' / | X.` / X.X./ / X.X.",
"/ X.X./ / X.X./ / X.X./ / X.X./ / X.X./ / X.X./ / X.* r r r r r r r r r r r X./ ` X.| / ] X.{ / { X.] / | X.' / | X./ / X.X./ / ",
"/ X.X./ / X.X./ / X.X./ / X.X./ / X.X./ / X.X./ / X.X.' r r r r r r r / / X.X./ ` X.| / ' X.{ / ] X.' / | X.` / X.X./ / X.X./ / ",
"X./ / X.X./ / X.X./ / X.X./ / X.X./ / X.X./ / X.X./ / X.X.C r r r r r X.X./ / X.X./ ` X.| / ] X.{ / { X.' ` | X./ / X.X./ / X.X.",
"X./ / X.X./ / X.X./ / X.X./ / X.X./ / X.X./ / X.X./ / X.X./ / r r r r X.X./ / X.| / ' X.{ / ] X.] ` { X.' / | X.` / X.X./ / X.X.",
"/ X.X./ / X.X./ / X.X./ / X.X./ / X.X./ / X.X./ / X.X./ / X.X./ ` r r / / X.X./ ` X.| / ' X.{ / ] X.] / { X.` / | X./ / X.X./ / ",
"/ X.X./ / X.X./ / X.X./ / X.X./ / X.X./ / X.X./ / X.X./ / X.X./ / X.w / / X.X./ ` X.| ` ' X.{ / { X.] / | X.` / X.X./ / X.X./ / "
};
