/* XPM */
static char *result[] = {
/* columns rows colors chars-per-pixel */
"64 64 60 1 ",
"  c gray77",
". c #C5C5C5",
"X c #C6C6C6",
"o c gray78",
"O c #C8C8C8",
"+ c gray79",
"@ c #CACACA",
"# c #CBCBCB",
"$ c gray80",
"% c #CDCDCD",
"& c #CECECE",
"* c gray81",
"= c #D0D0D0",
"- c gray82",
"; c #D2D2D2",
": c LightGray",
"> c gray83",
", c #D5D5D5",
"< c gray84",
"1 c #D7D7D7",
"2 c #D8D8D8",
"3 c gray85",
"4 c #DADADA",
"5 c gray86",
"6 c gainsboro",
"7 c #DDDDDD",
"8 c gray87",
"9 c #DFDFDF",
"0 c gray88",
"q c #E1E1E1",
"w c #E2E2E2",
"e c gray89",
"r c #E4E4E4",
"t c gray90",
"y c #E6E6E6",
"u c #E7E7E7",
"i c gray91",
"p c #E9E9E9",
"a c #EAEAEA",
"s c gray92",
"d c #ECECEC",
"f c gray93",
"g c #EEEEEE",
"h c #EFEFEF",
"j c gray94",
"k c #F1F1F1",
"l c gray95",
"z c #F3F3F3",
"x c #F4F4F4",
"c c gray96",
"v c #F6F6F6",
"b c gray97",
"n c #F8F8F8",
"m c #F9F9F9",
"M c gray98",
"N c #FBFBFB",
"B c gray99",
"V c #FDFDFD",
"C c #FEFEFE",
"Z c white",
/* pixels */
"eeeeeeeeeeeeeeeeeeeeeeeeeeeeee23yswqyqeeeeeeeeeeeeeeeeeeeeeeeeee",
"eeeeeeeeeeeeeeeeeeeeeeeeeeeeee23yswqyqeeeeeeeeeeeeeeeeeeeeeeeeee",
"eeeeeeeeeeeeeeeeeeeeeeeeeeeeee23yswqyqeeeeeeeeeeeeeeeeeeeeeeeeee",
"eeeeeeeeeeeeeeeeeeeeeeeeeeeeee23yswqyqeeeeeeeeeeeeeeeeeeeeeeeeee",
"eeeeeeeeeeeeeeeeeeeeeeeeeeeeee,<epqqyqqqqqqqqqqqqqqqqqeeeeeeeeqq",
"eeeeeeeeeeeeeeeeeeeeeeeeeeeeee45ufewuwyyyyyyyyrrrrrrrrttttttttrr",
"eeeeeeeeeeeeeeeeeeeeeeeeeeeeee12tswwuwwwwwwwwwqqqqqqqqqqqqqqqqqq",
"eeeeeeeeeeeeeeeeeeeeeeeeeeeeee>,eaweprwwwwwwwweeeeeeeerrrrrrrrrr",
"eeeeeeeeeeeeeeeeeeeeeeeeeeeeee33ydwwuwrrrrrrrryyyyyyyytttttttttt",
"eeeeeeeeeeeeeeeeeeeeeeeeeeeeee21ey425,22222222,,,,,,,,>>>>>>>>::",
"eeeeeeeeeeeeeeeeeeeeeeeeeeeeee;;8w1,2;--------%%%%%%%%$$$$$$$$++",
"eeeeeeeeeeeeeeeeeeeeeeeeeeeeee;:qu99t099999999777777776666666622",
"eeeeeeeeeeeeeeeeeeeeeeeeeeeeee33nCMZCZBBBBBBBBMMMMMMMMbbbbbbbbxx",
"eeeeeeeeeeeeeeeeeeeeeeeeeeeeee,>zbhvjlhhhhhhhhhhhhhhhhffffffffss",
"eeeeeeeeeeeeeeeeeeeeeeeeeeeeee>:jkysetrrrrrrrrttttttttrrrrrrrrrr",
"eeeeeeeeeeeeeeeeeeeeeeeeeeeeee<,lltu0wwwwwwwwweeeeeeeeeeeeeeeerr",
"eeeeeeeeeeeeeeeeeeeeeeeeeeeeee,,zztuqteeeeeeeetttttttteeeeeeeerr",
"eeeeeeeeeeeeeeeeeeeeeeeeeeeeee-:lleyqteeeeeeeerrrrrrrrwwwwwwwwee",
"eeeeeeeeeeeeeeeeeeeeeeeeeeeeee=;llwr0teeeeeeeewwwwwwwwwwwwwwwwww",
"eeeeeeeeeeeeeeeeeeeeeeeeeeeeee;,czer0trrrrrrrrwwwwwwwweeeeeeeeee",
"eeeeeeeeeeeeeeeeeeeeeeeeeeeeee==hhey0eeeeeeeeeeeeeeeeeeeeeeeeeee",
"eeeeeeeeeeeeeeeeeeeeeeeeeeeeee==hhey0eeeeeeeeeeeeeeeeeeeeeeeeeee",
"eeeeeeeeeeeeeeeeeeeeeeeeeeeeee==hhey0eeeeeeeeeeeeeeeeeeeeeeeeeee",
"eeeeeeeeeeeeeeeeeeeeeeeeeeeeee==hhey0eeeeeeeeeeeeeeeeeeeeeeeeeee",
"eeeeeeeeeeeeeeeeeeeeeeeeeeeeee==hhey0eeeeeeeeeeeeeeeeeeeeeeeeeee",
"eeeeeeeeeeeeeeeeeeeeeeeeeeeeee==hhey0eeeeeeeeeeeeeeeeeeeeeeeeeee",
"eeeeeeeeeeeeeeeeeeeeeeeeeeeeee==hhey0eeeeeeeeeeeeeeeeeeeeeeeeeee",
"eeeeeeeeeeeeeeeeeeeeeeeeeeeeee==hhey0eeeeeeeeeeeeeeeeeeeeeeeeeee",
"eeeeeewwwwwwwwrrrrrrrrrrrrrrrr&*ff0rqyeeeeeeeeeeeeeeeeeeeeeeeeee",
"eeeeeewwwwwwwwqqqqqqqq00000000::llry9weeeeeeeeeeeeeeeeeeeeeeeeee",
"%%%%%%########oooooooo........XOagrpeteeeeeeeeeeeeeeeeeeeeeeeeee",
"======&&&&&&&&++++++++XXXXXXXX@@iswieyeeeeeeeeeeeeeeeeeeeeeeeeee",
"cccccczzzzzzzzjjjjjjjjffffffffy0chqt9qeeeeeeeeeeeeeeeeeeeeeeeeee",
"nnnnnnbbbbbbbbvvvvvvvvxxxxxxxxaqzd9r9weeeeeeeeeeeeeeeeeeeeeeeeee",
"wwwwwweeeeeeeeeeeeeeeewwwwwwww8<si9ueteeeeeeeeeeeeeeeeeeeeeeeeee",
"eeeeeerrrrrrrrrrrrrrrrrrrrrrrrw4jgrpqqeeeeeeeeeeeeeeeeeeeeeeeeee",
"eeeeeeeeeeeeeeeeeeeeeeeeeeeeee55ifewyqeeeeeeeeeeeeeeeeeeeeeeeeee",
"eeeeeeeeeeeeeeeeeeeeeeeeeeeeee55ifewyqeeeeeeeeeeeeeeeeeeeeeeeeee",
"eeeeeeeeeeeeeeeeeeeeeeeeeeeeee55ifewyqeeeeeeeeeeeeeeeeeeeeeeeeee",
"eeeeeeeeeeeeeeeeeeeeeeeeeeeeee55ifewyqeeeeeeeeeeeeeeeeeeeeeeeeee",
"eeeeeeeeeeeeeeeeeeeeeeeeeeeeee55ifewyqeeeeeeeeeeeeeeeeeeeeeeeeee",
"eeeeeeeeeeeeeeeeeeeeeeeeeeeeee55ifewyqeeeeeeeeeeeeeeeeeeeeeeeeee",
"eeeeeeeeeeeeeeeeeeeeeeeeeeeeee55ifewyqeeeeeeeeeeeeeeeeeeeeeeeeee",
"eeeeeeeeeeeeeeeeeeeeeeeeeeeeee55ifewyqeeeeeeeeeeeeeeeeeeeeeeeeee",
"eeeeeeeeeeeeeeeeeeeeeeeeeeeeee>6riywqwrrrrrrrreeeeeeeewwwwwwwwee",
"eeeeeeeeeeeeeeeeeeeeeeeeeeeeee18ypyewettttttttrrrrrrrreeeeeeeeee",
"eeeeeeeeeeeeeeeeeeeeeeeeeeeeee18yiyeweeeeeeeeeeeeeeeeerrrrrrrrww",
"eeeeeeeeeeeeeeeeeeeeeeeeeeeeee>5eyrwetwwwwwwwwwwwwwwwwrrrrrrrrww",
"eeeeeeeeeeeeeeeeeeeeeeeeeeeeee,6eytryirrrrrrrreeeeeeeettttttttrr",
"eeeeeeeeeeeeeeeeeeeeeeeeeeeeee28ryrwrywwwwwwwwqqqqqqqqqqqqqqqq00",
"eeeeeeeeeeeeeeeeeeeeeeeeeeeeee1600522422222222,,,,,,,,>>>>>>>>;;",
"eeeeeeeeeeeeeeeeeeeeeeeeeeeeee>252-$#%$$$$$$$$++++++++oooooooo  ",
"eeeeeeeeeeeeeeeeeeeeeeeeeeeeee5<jlajuyiiiiiiiiyyyyyyyyttttttttqq",
"eeeeeeeeeeeeeeeeeeeeeeeeeeeeee1>lmvZNVCCCCCCCCbbbbbbbbzzzzzzzzkk",
"eeeeeeeeeeeeeeeeeeeeeeeeeeeeee3<zvjbklffffffffkkkkkkkkffffffffdd",
"eeeeeeeeeeeeeeeeeeeeeeeeeeeeee4<jhet77wwwwwwwwqqqqqqqqqqqqqqqqqq",
"eeeeeeeeeeeeeeeeeeeeeeeeeeeeee<>jheu0wrrrrrrrrrrrrrrrrrrrrrrrrrr",
"eeeeeeeeeeeeeeeeeeeeeeeeeeeeee21zltiwt99999999yyyyyyyyrrrrrrrrrr",
"eeeeeeeeeeeeeeeeeeeeeeeeeeeeee32xlwe69ttttttttwwwwwwww0000000000",
"eeeeeeeeeeeeeeeeeeeeeeeeeeeeee;:kjeyqyqqqqqqqqrrrrrrrrttttttttrr",
"eeeeeeeeeeeeeeeeeeeeeeeeeeeeee,>kjey0eeeeeeeeeeeeeeeeeeeeeeeeeee",
"eeeeeeeeeeeeeeeeeeeeeeeeeeeeee,>kjey0eeeeeeeeeeeeeeeeeeeeeeeeeee",
"eeeeeeeeeeeeeeeeeeeeeeeeeeeeee,>kjey0eeeeeeeeeeeeeeeeeeeeeeeeeee",
"eeeeeeeeeeeeeeeeeeeeeeeeeeeeee,>kjey0eeeeeeeeeeeeeeeeeeeeeeeeeee"
};
