/* XPM */
static char *e68063a74c7849f0f8965e8a2fc23e48eZ9ke9aYOzbFiIXw[] = {
/* columns rows colors chars-per-pixel */
"64 64 189 2 ",
"   c #000000",
".  c #010101",
"X  c #09080B",
"o  c #120B0A",
"O  c #1B0F0B",
"+  c #13100E",
"@  c #1B110C",
"#  c #141211",
"$  c #1A1614",
"%  c #1D1916",
"&  c #12121A",
"*  c #1D1B19",
"=  c #24150E",
"-  c #231610",
";  c #241913",
":  c #2B1B13",
">  c #221D1A",
",  c #2C1E19",
"<  c #311E16",
"1  c #321F19",
"2  c #24211E",
"3  c #34221A",
"4  c #3B251A",
"5  c #3E281E",
"6  c #332017",
"7  c #121724",
"8  c #1A1F22",
"9  c #111929",
"0  c #151922",
"q  c #1C232D",
"w  c #1D2639",
"e  c #252221",
"r  c #2A2622",
"t  c #2C2925",
"y  c #292729",
"u  c #2D2A29",
"i  c #362721",
"p  c #322B25",
"a  c #3B2C23",
"s  c #332D2A",
"d  c #3A2E29",
"f  c #3B2622",
"g  c #273122",
"h  c #36302C",
"j  c #3B322C",
"k  c #3B3027",
"l  c #242D34",
"z  c #21273A",
"x  c #242C3B",
"c  c #262B36",
"v  c #2A333C",
"b  c #293236",
"n  c #373030",
"m  c #3C3532",
"M  c #3E3934",
"N  c #3E3738",
"B  c #3E3A38",
"V  c #32373B",
"C  c #41291E",
"Z  c #40271E",
"A  c #442C22",
"S  c #4A2E21",
"D  c #432F29",
"F  c #422720",
"G  c #453125",
"H  c #4C3224",
"J  c #43332B",
"K  c #4B3429",
"L  c #4B382D",
"P  c #533526",
"I  c #563927",
"U  c #523629",
"Y  c #54392B",
"T  c #5A3C2B",
"R  c #583728",
"E  c #423631",
"W  c #483630",
"Q  c #413A35",
"!  c #4C3A32",
"~  c #433C3A",
"^  c #553B31",
"/  c #5B3D31",
"(  c #613F30",
")  c #5F402E",
"_  c #46403B",
"`  c #46403C",
"'  c #49423D",
"]  c #5D4032",
"[  c #5C463B",
"{  c #534038",
"}  c #60402E",
"|  c #634232",
" . c #6A4535",
".. c #6D4937",
"X. c #624438",
"o. c #6B4738",
"O. c #6C493A",
"+. c #744D3B",
"@. c #784F3C",
"#. c #704B37",
"$. c #76503B",
"%. c #79513D",
"&. c #272F43",
"*. c #2B3443",
"=. c #2D3943",
"-. c #2C354A",
";. c #2B394B",
":. c #333A44",
">. c #323C4A",
",. c #333947",
"<. c #373F54",
"1. c #3B424C",
"2. c #364048",
"3. c #394252",
"4. c #3A4457",
"5. c #474040",
"6. c #484140",
"7. c #4B4542",
"8. c #4E4943",
"9. c #544D4A",
"0. c #56504C",
"q. c #41495C",
"w. c #444854",
"e. c #48525E",
"r. c #5A5550",
"t. c #5E5954",
"y. c #724D40",
"u. c #745041",
"i. c #7A5241",
"p. c #7C5341",
"a. c #7C5945",
"s. c #625D5A",
"d. c #68635E",
"f. c #776357",
"g. c #474B64",
"h. c #4B5768",
"j. c #525C69",
"k. c #4D5A75",
"l. c #535C73",
"z. c #56606E",
"x. c #5B6576",
"c. c #5B667D",
"v. c #5A6878",
"b. c #786F60",
"n. c #626B79",
"m. c #64707C",
"M. c #80563E",
"N. c #825642",
"B. c #835946",
"V. c #845A48",
"C. c #8B5D4A",
"Z. c #8D604C",
"A. c #87604F",
"S. c #90604C",
"D. c #80746B",
"F. c #827773",
"G. c #98907E",
"H. c #55618F",
"J. c #636E80",
"K. c #697487",
"L. c #6C7889",
"P. c #727C8D",
"I. c #7C848E",
"U. c #768494",
"Y. c #738098",
"T. c #81879A",
"R. c #868EA0",
"E. c #8B95A3",
"W. c #8795A8",
"Q. c #909FAF",
"!. c #979FB6",
"~. c #8396BB",
"^. c #97A0AE",
"/. c #98A5B5",
"(. c #A5ACB9",
"). c #A9B4BC",
"_. c #9FAEC8",
"`. c #ABB7C8",
"'. c #AAC0D5",
"]. c #B9C6D4",
"[. c #B8C8D8",
"{. c #C1CDDE",
"}. c #CBDAE7",
"|. c #CAD6E4",
" X c #D2DBE5",
".X c #CDE0EA",
"XX c #DBE4EC",
"oX c #E3EAEB",
"OX c #E9EEF3",
/* pixels */
"                                                                                                                                ",
"                                                                                                                                ",
"                                                                                                                                ",
"                                                                                                                                ",
"                                                                                                                                ",
"                                                                                                                                ",
"                                                                                                                                ",
"                                                                                                                                ",
"                                                                                                                                ",
"                                                                                                                                ",
"                                                6.6.' ~ ~ ~ ~ ~ ~ ~ ~ ` ~ 6.                                                    ",
"                                          ~ ~ ~ ~ ~ ~ ~ ~ ~ M ~ B N M M M M M M ~ ~                                             ",
"                                        5.~ ~ ~ ~ ~ ~ ~ ~ ~ ~ ! Q Q Q m m m m n n j M M B _                                     ",
"                                5.5.~ ' 5.5.~ ~ ~ ~ ~ ~ ~ ~ ~ ~ B ~ Q Q M m m m M n n n j h n B `                               ",
"                              5.~ ~ ~ ! ~ ~ Q m ~ 5.~ 7.` ~ ~ Q Q B Q m m N m m m n m j j n m h n h M `                         ",
"                            ~ ~ ~ 5.~ 5.~ 6.5.~ E d ~ ~ ~ ~ Q ~ Q Q M Q Q E m m m j n m h n h j h h h h h `                     ",
"                            W ~ ~ ~ 5.5.7.7.6.~ 5.~ n h B ~ M Q Q Q M Q N M M E m m m m j h m n j m h h h h m `                 ",
"                          r 9.O.E ~ 9.9.0.0.9.9.7.~ _ ~ n s j M Q Q m N N m M j m m m j m m m h h j h h h h h h ~               ",
"                          a.C.a.i.i.~ s.s.s.r.9.8.7.` ~ ~ M M s s m N m m m Q m m m m m m j m m m j j h h h h h h j             ",
"                        C.C.C.C.C.N.i./ 8.s.s.r.9.7.' 6._ ~ Q Q N n s n m m m m m m m m B m m m m m m j h h h h h h m           ",
"                      O.^ p.S.C.C.B.N.i.@.D 9.s.0.8.' ` _ ~ ~ Q m M N m p p n m m m h m m B h M m B M M m j h h h h h `         ",
"                      D > i J o.M.N.M.@.i.+.@.3 8.9.8.7._ ~ ~ ~ Q N N N m B n t s m m m m m M M M B M M M M M h h h h h         ",
"                      A 1 - f W T +.@.M.@.@.@.@.+.r j ' ' _ ~ ~ Q Q Q Q m m m M n h t u m B B M M M _ ~ _ M Q B h h h h `       ",
"                      / 1 - O 5 U ^ +.i.@.@.@.i.%.+.O.K p M ~ M ~ Q m Q B m Q B B m M M 3 t h j M _ M _ ` ` ` Q j h h h h       ",
"                      u.H 5 , = f o.o.@.$.@.$.%.$.p.+.O.X.k 2 j M Q B M E M M M M m m M E m j u u h M ` _ _ ` _ Q j h h h B     ",
"                    a.| K A G 4 D.F +.@.+.@.+.+.+.+.$.+.y.] s t * i j M M j M M m B M m m B Q M _ h t u m ` 7.7.` B h h h h     ",
"                  V.o.Y K K K Y ( f.Z ( o.$.+.+.+.+.u.+.+.O.J t y r r > s j m m M M M M m J B ~ M _ ~ Q u t h B Q B m h h h `   ",
"                y.| T U ^ / ^ / y.+.+. .p.C.V.p.a.p.+.+.+.#.[ d u y r r t 2 e k n j j n m m n B M M _ ' ' ` n g s h h s h h h   ",
"            A.p.O.^ U K | X.| ] ( y.+.B.S.S.C.B.i.i.i.+.+.O.O./ j p g t t r r e > r j m n m j M M j Q _ ` ' 7.` M u p h h p h   ",
"          A.B.+.^ A 4 A | O.O.y.p.A.S.C.p.V.B.B.N.p.y.+.o.O.o.o.] j u t t t t t r y 2 * p n n n h j j m M M ` ~ _ j h u t t p   ",
"        a.%.@.| | Y C 6 K O.O.+.p.B.B.N.p.p.p.p.p.@.+.O.O.O.o.O.o.] j s t g t y y t y r e * 2 p h h m h m m M M j h h h h j h   ",
"        X. .X. .T P Z C | +.o.O.+.@.+.+.@.#.#.#.#.+.#.#.O.#.O. ...X.^ k p s t t t t t t t t e % % 2 u h h h h h h h u h h u j   ",
"          1 o O F A H ] i.y. .o.O. .O.#. .| | | }  . . . . . . . .} ^ J s p p t t t u J I U I U S 5 2 % 2 r p t t s p p p t t Q ",
"            3 4 a i K $.u.+.| | (  .} } | / } | T T T ) T ( } | T Y K J s p s p t s K U T T I I U I U H G ; ; e r r p p t r r   ",
"            g y p s h j / o.| | ( } | / ) / / | | | ( T T T T T T Y G k p p p p u G U I I P S 4 6 5 S H I I K 4 $ e r r r t t   ",
"          E m m s s u s s n o.] | ( T | / } T | ] ) } } T ( / T Y L G j k h p p k H L T I H = : o O o o @ P I H 3 % % r r r     ",
"          X.[ ^ M j j s s s ^ ) ( ( } T T | | } ] ] | | / ) ^ ^ Y K J D k d k d G K U Y P S : < = : 6 @ + o P H a * * * ; y     ",
"          D ! / | ~ Q n h h u | ( ( ( | | ] ) ] / T ^ U Y Y L K J J D J G J k D G U T U P S = 1 : @ S = O = P C > * * e         ",
"              F.A ^ T ^ W h s k T ] | / ] ] / ^ ^ K L L W J W L J J E D J J J G U Y I Y P H 4 < : 5 S = O S H C % * %           ",
"          U K , o G.b.d K K n p J / ] T / ^ Y L W W W L W J J J J J J j D d J G P T T T R P Z : : C C 6 6 H C 2 * *             ",
"          / / ^ K G A a 3 k J s s G / ^ Y L L W L Q J J W E J J J D D m J k J J U T T T T P 4 - = S H 4 P C 4 > *               ",
"          J Y ^ / / ] X.X./ K s u n J W W E J L J W J E J J J j E d d d k k k k K T T I T P - - C I H C P 5 6 % >               ",
"          D S Y T ] ] | X./ U s u s m J L L J j J j E j j J j j j k d d p a a k K T I T R P C C T P I P C 4 4 6                 ",
"        [ ! U U K T ] / T T L p u s d m j J j j j j k k j j j k k d s d h p h a k I R R T R T R R T R S 4 4 4 A                 ",
"        o.Q E Y Y Y Y U U U K u u n n n k j h h k h k k k h h h s p p p p p p p 3 G H K I Y R R R P y v >.v i                   ",
"      *.*.,.:.>.v T ] Y T / L h u u u h h h h a d s s s p p i p p p t r p r r r r i 5 5 6 < < 4 5 :.>.*.*.*.>.w.                ",
"    v x U.R./.x V b ^ / / ^ J u u s u s h p t p s p p u u r t t t r r r 2 2 2 2 2 2 5 4 4 < : = >.=.;.E.l.U.3.*.w.              ",
"  &.*.x.oX& /.Q.v.;.q ] / / K u u b u u y u t u t r r r r r e r r 2 r 2 2 2 2 > * * 3 4 6 1 < l =.K.1.).h.9 }.U.*.v             ",
"  &.z.*./.`.L.h.j.l :.K Y T K p u y y y y y r e r e e e e e 2 2 > > > > * * % * * % > 4 4 4 6 *.>./.>.x.E.[.H.j.l 1.            ",
"z ,.`./.'.J.L.I._.1.V q U L H s r y y e e 2 8 8 > 8 * * * % * $ % $ $ $ $ $ * $ * , 6 4 4 4 4 v e./.).E.P.m.x 3.1.:.            ",
"  -.c.k.j.`.c.l.l.q.=.2 K G A i e * * * * $ $ # # # # # # # # # & # # $ & $ ; , 6 4 4 4 4 4 4 v h.9 &.x.Q.v.^. X4.:.            ",
"  *.OX7 XXK.[.u q x v 5 4 6 6 1 * $ $ # + + # + + + + + @ @ $ - - ; - : < 1 r                 z 1.L.}.L.E.].w v.-.V             ",
"  x g.oXn.w H.T.}.v b . X                                                   X X . . . . . . . w :. XY.w m.m.k.~.*.c             ",
"  . x q.XX}.`.~.-.l . . . . . . . . . . . . . . . . . . . . . . . . . . . . . . . . . . . . . . y w.(.oX{._.H.-.b . .           ",
"  . . 0 &.<.;.&.q . . . . . . . . . . . . . . . . . . . . . . . . . . . . . . . . . . . . . . . . l x 3.q.,.z 8 . . .           ",
"                                                                                                      & 0 &                     ",
"                                                                                                                                ",
"                                                                                                                                ",
"                                                                                                                                ",
"                                                                                                                                ",
"                                                                                                                                ",
"                                                                                                                                ",
"                                                                                                                                ",
"                                                                                                                                "
};
