/* XPM */
static char *result[] = {
/* columns rows colors chars-per-pixel */
"64 64 188 2 ",
"   c #010101",
".  c #09080B",
"X  c #120B0A",
"o  c #1B0F0B",
"O  c #13100E",
"+  c #1B110C",
"@  c #141211",
"#  c #1A1614",
"$  c #1D1916",
"%  c #12121A",
"&  c #1D1B19",
"*  c #24150E",
"=  c #231610",
"-  c #241913",
";  c #2B1B13",
":  c #221D1A",
">  c #2C1E19",
",  c #311E16",
"<  c #321F19",
"1  c #24211E",
"2  c #34221A",
"3  c #3B251A",
"4  c #3E281E",
"5  c #332017",
"6  c #121724",
"7  c #1A1F22",
"8  c #111929",
"9  c #151922",
"0  c #1C232D",
"q  c #1C2435",
"w  c #1E293D",
"e  c #252221",
"r  c #2A2622",
"t  c #2C2925",
"y  c #292729",
"u  c #2D2A29",
"i  c #362721",
"p  c #322B25",
"a  c #3B2C23",
"s  c #332D2A",
"d  c #3A2E29",
"f  c #3B2622",
"g  c #273122",
"h  c #36302C",
"j  c #3B322C",
"k  c #3B3027",
"l  c #242D34",
"z  c #21273A",
"x  c #242C3B",
"c  c #262B36",
"v  c #2A333C",
"b  c #293236",
"n  c #373030",
"m  c #3C3532",
"M  c #3E3934",
"N  c #3E3738",
"B  c #3E3A38",
"V  c #32373B",
"C  c #41291E",
"Z  c #40271E",
"A  c #442C22",
"S  c #4A2E21",
"D  c #432F29",
"F  c #422720",
"G  c #453125",
"H  c #4C3224",
"J  c #43332B",
"K  c #4B3429",
"L  c #4B382D",
"P  c #533526",
"I  c #563927",
"U  c #523629",
"Y  c #54392B",
"T  c #5A3C2B",
"R  c #583728",
"E  c #423631",
"W  c #483630",
"Q  c #413A35",
"!  c #4C3A32",
"~  c #433C3A",
"^  c #553B31",
"/  c #5B3D31",
"(  c #613F30",
")  c #5F402E",
"_  c #46403C",
"`  c #49423D",
"'  c #5D4032",
"]  c #5C463B",
"[  c #534038",
"{  c #60402E",
"}  c #634232",
"|  c #6A4535",
" . c #6D4937",
".. c #624438",
"X. c #6B4738",
"o. c #6C493A",
"O. c #744D3B",
"+. c #784F3C",
"@. c #704B37",
"#. c #76503B",
"$. c #79513D",
"%. c #272F43",
"&. c #2B3443",
"*. c #2D3943",
"=. c #2C354A",
"-. c #2B394B",
";. c #333A44",
":. c #323C4A",
">. c #333947",
",. c #373F54",
"<. c #3B424C",
"1. c #364048",
"2. c #394252",
"3. c #3A4457",
"4. c #474040",
"5. c #4A4341",
"6. c #4E4943",
"7. c #544D4A",
"8. c #56504C",
"9. c #41495C",
"0. c #444854",
"q. c #48525E",
"w. c #5A5550",
"e. c #5E5954",
"r. c #724D40",
"t. c #745041",
"y. c #7C5341",
"u. c #7C5945",
"i. c #625D5A",
"p. c #68635E",
"a. c #776357",
"s. c #474B64",
"d. c #4B5768",
"f. c #525C69",
"g. c #4D5A75",
"h. c #535C73",
"j. c #56606E",
"k. c #5B6576",
"l. c #5B667D",
"z. c #5A6878",
"x. c #786F60",
"c. c #626B79",
"v. c #64707C",
"b. c #80563E",
"n. c #825642",
"m. c #835946",
"M. c #845A48",
"N. c #8B5D4A",
"B. c #8D604C",
"V. c #87604F",
"C. c #90604C",
"Z. c #80746B",
"A. c #827773",
"S. c #98907E",
"D. c #55618F",
"F. c #636E80",
"G. c #697487",
"H. c #6C7889",
"J. c #727C8D",
"K. c #7C848E",
"L. c #768494",
"P. c #738098",
"I. c #81879A",
"U. c #868EA0",
"Y. c #8B95A3",
"T. c #8795A8",
"R. c #909FAF",
"E. c #979FB6",
"W. c #8396BB",
"Q. c #97A0AE",
"!. c #98A5B5",
"~. c #A5ACB9",
"^. c #A9B4BC",
"/. c #9FAEC8",
"(. c #ABB7C8",
"). c #AAC0D5",
"_. c #B9C6D4",
"`. c #B8C8D8",
"'. c #C1CDDE",
"]. c #CBDAE7",
"[. c #CAD6E4",
"{. c #D2DBE2",
"}. c #D3DCEC",
"|. c #CDE0EA",
" X c #DBE4EC",
".X c #E3EAEB",
"XX c #E9EEF3",
"oX c #000000",
/* pixels */
"oXoXoXoXoXoXoXoXoXoXoXoXoXoXoXoXoXoXoXoXoXoXoXoXoXoXoXoXoXoXoXoXoXoXoXoXoXoXoXoXoXoXoXoXoXoXoXoXoXoXoXoXoXoXoXoXoXoXoXoXoXoXoXoX",
"oXoXoXoXoXoXoXoXoXoXoXoXoXoXoXoXoXoXoXoXoXoXoXoXoXoXoXoXoXoXoXoXoXoXoXoXoXoXoXoXoXoXoXoXoXoXoXoXoXoXoXoXoXoXoXoXoXoXoXoXoXoXoXoX",
"oXoXoXoXoXoXoXoXoXoXoXoXoXoXoXoXoXoXoXoXoXoXoXoXoXoXoXoXoXoXoXoXoXoXoXoXoXoXoXoXoXoXoXoXoXoXoXoXoXoXoXoXoXoXoXoXoXoXoXoXoXoXoXoX",
"oXoXoXoXoXoXoXoXoXoXoXoXoXoXoXoXoXoXoXoXoXoXoXoXoXoXoXoXoXoXoXoXoXoXoXoXoXoXoXoXoXoXoXoXoXoXoXoXoXoXoXoXoXoXoXoXoXoXoXoXoXoXoXoX",
"oXoXoXoXoXoXoXoXoXoXoXoXoXoXoXoXoXoXoXoXoXoXoXoXoXoXoXoXoXoXoXoXoXoXoXoXoXoXoXoXoXoXoXoXoXoXoXoXoXoXoXoXoXoXoXoXoXoXoXoXoXoXoXoX",
"oXoXoXoXoXoXoXoXoXoXoXoXoXoXoXoXoXoXoXoXoXoXoXoXoXoXoXoXoXoXoXoXoXoXoXoXoXoXoXoXoXoXoXoXoXoXoXoXoXoXoXoXoXoXoXoXoXoXoXoXoXoXoXoX",
"oXoXoXoXoXoXoXoXoXoXoXoXoXoXoXoXoXoXoXoXoXoXoXoXoXoXoXoXoXoXoXoXoXoXoXoXoXoXoXoXoXoXoXoXoXoXoXoXoXoXoXoXoXoXoXoXoXoXoXoXoXoXoXoX",
"oXoXoXoXoXoXoXoXoXoXoXoXoXoXoXoXoXoXoXoXoXoXoXoXoXoXoXoXoXoXoXoXoXoXoXoXoXoXoXoXoXoXoXoXoXoXoXoXoXoXoXoXoXoXoXoXoXoXoXoXoXoXoXoX",
"oXoXoXoXoXoXoXoXoXoXoXoXoXoXoXoXoXoXoXoXoXoXoXoXoXoXoXoXoXoXoXoXoXoXoXoXoXoXoXoXoXoXoXoXoXoXoXoXoXoXoXoXoXoXoXoXoXoXoXoXoXoXoXoX",
"oXoXoXoXoXoXoXoXoXoXoXoXoXoXoXoXoXoXoXoXoXoXoXoXoXoXoXoXoXoXoXoXoXoXoXoXoXoXoXoXoXoXoXoXoXoXoXoXoXoXoXoXoXoXoXoXoXoXoXoXoXoXoXoX",
"oXoXoXoXoXoXoXoXoXoXoXoXoXoXoXoXoXoXoXoXoXoXoXoXoXoX` ~ ~ ~ ~ ~ ~ ~ ~ ~ ~ 4.4.5.oXoXoXoXoXoXoXoXoXoXoXoXoXoXoXoXoXoXoXoXoXoXoXoX",
"oXoXoXoXoXoXoXoXoXoXoXoXoXoXoXoXoXoXoXoXoXoX~ B M N M m M B ~ Q Q Q ~ ~ ~ ! ~ ~ ~ ~ ~ oXoXoXoXoXoXoXoXoXoXoXoXoXoXoXoXoXoXoXoXoX",
"oXoXoXoXoXoXoXoXoXoXoXoXoXoXoXoXoXoX~ B m m h m m m m m m Q Q M Q Q Q ~ ~ ~ ~ ~ ~ ~ ~ 5.oXoXoXoXoXoXoXoXoXoXoXoXoXoXoXoXoXoXoXoX",
"oXoXoXoXoXoXoXoXoXoXoXoXoXoXoX~ N m m m j n m n m m m m Q N Q Q ~ Q ~ ` ` ~ ~ ~ 4.~ 4.~ ` ~ 4.5.oXoXoXoXoXoXoXoXoXoXoXoXoXoXoXoX",
"oXoXoXoXoXoXoXoXoXoXoXoX_ M j n m s m h m j m m m m M m Q Q E ~ ~ ` ~ ` ~ ~ 4.~ Q Q ~ ~ ~ ~ ~ ~ 5.oXoXoXoXoXoXoXoXoXoXoXoXoXoXoX",
"oXoXoXoXoXoXoXoXoXoX_ h h n h h s d m s m m j m m m M Q Q N N N Q Q Q ~ ~ ~ m m ~ 4.~ 5.~ ~ ~ ~ ~ ~ oXoXoXoXoXoXoXoXoXoXoXoXoXoX",
"oXoXoXoXoXoXoXoX_ m h h h h h h m h n h m m m m m Q m N Q m ~ Q Q Q ~ B h m ~ 4.5.5.5.5.4.4.~ ~ ~ W oXoXoXoXoXoXoXoXoXoXoXoXoXoX",
"oXoXoXoXoXoXoXQ h h h h h h h h m m m m j m m m m N m Q M m Q Q Q h s m B ~ ~ 5.6.7.8.7.7.7.5.n o.7.r oXoXoXoXoXoXoXoXoXoXoXoXoX",
"oXoXoXoXoXoXm h h h h h h h j m m m h m m m m M m m M m m m m s p M B ~ ~ ` 5.6.7.w.i.i.i.W n.+.y.N.m.oXoXoXoXoXoXoXoXoXoXoXoXoX",
"oXoXoXoXoXm h h h h h j j M M m m m j M M m m m m m m M n s n N Q Q ~ ~ 4.` 6.7.w.i.p.6./ y.+.C.N.C.B.M.oXoXoXoXoXoXoXoXoXoXoXoX",
"oXoXoXoX_ h h h h h j m M m M M M m M N m m m m j h s p M B m M Q B ~ ~ ~ [ 6.8.i.7.D O.t.n.m.C.C.B.y.^ X.oXoXoXoXoXoXoXoXoXoXoX",
"oXoXoXoXh h h h j m Q Q Q Q m M M M m m m m h u t m B m M M M B ~ ~ ~ ~ 5.5.7.6.i O.O.y.+.n.n.b.o.J i - D oXoXoXoXoXoXoXoXoXoXoX",
"oXoXoXQ h h h h M B _ Q _ M _ M Q m M n p t h m m m B m B B Q Q ~ ~ ` ` 5.m r O.+.+.+.+.+.b.O.^ W f = < A oXoXoXoXoXoXoXoXoXoXoX",
"oXoXoXh h h h m M _ _ _ Q _ Q B m p t p m M M M B Q m m Q m Q Q Q ~ Q p W @.O.+.y.+.+.+.y.@.^ ^ f o = < ' oXoXoXoXoXoXoXoXoXoXoX",
"oXoX~ h h h M M _ _ ` _ _ B h u t j E E m M m M M M M E M M _ Q j 1 d .. .O.$.$.$.$.O.#.#.X.X.f * > C H t.oXoXoXoXoXoXoXoXoXoXoX",
"oXoXh h h h M _ ` ` _ M p 1 h Q ~ m B m M m N m M M m m M m 2 & t p ] O.O.#.$.O.O.O.O.$.#.#.F Z.3 G A K } u.oXoXoXoXoXoXoXoXoXoX",
"oXB s h h j m _ ~ h g u _ _ Q ~ B B m m j M m j m M j s 1 1 t t t J o.O.$.O.O.O.O.O.O.o.{ C a./ Y K K K Y | m.oXoXoXoXoXoXoXoXoX",
"oXh p h h h h u t n _ ` _ _ ~ Q m m m M m j M m d 1 1 y 1 t t t j ' o.$.O.$.t.y.n.M.M.y.| O.O.o./ ^ ' Y K / ..t.oXoXoXoXoXoXoXoX",
"oXh p h h p t m _ 4.` _ _ B m j j j n m m s r : r e t t t t t j ' o.o.O.o.y.y.r.m.N.C.C.M.r.O...' ....} K Y Y o.y.V.oXoXoXoXoXoX",
"oXp u u p h M B _ _ B M M m m h m m m t : e r y t t t t t t m ' o.X.o.X.O.t.y.n.m.M.m.y.C.N.N.m.r.o.o...F 3 A ^ O.m.B.oXoXoXoXoX",
"oXh h h h h h M M M m m h h h h u 1 : 1 r y t t t t t u p k )  .X.X.X.o.o.O.$.y.+.y.b.$.y.m.n.y.O.o.o.H 5 C R { ..+.y.u.oXoXoXoX",
"oXj s h h s h h h s s s h u 1 $ $ 1 t t t t t y u t u p j [ }  .| o.@.o.@.@.O.@.@.@.O.O.#.#.#.@.X.X.O.} C Z P T | ......oXoXoXoX",
"B t t t p 2 u t 2 t t 1 $ 1 C S P I U P J s t t t p p p j ^ ( | .. .| | | | { | } } } | X.o.| X.| | r.y.' H F C + X 2 oXoXoXoXoX",
"oXr t t u p t 1 r & - S H U I U K I T ) Y K p t u p p h J K T / { { ( ( T T { T } { ( ' } ( | } } } O.t.#.K i a 3 2 oXoXoXoXoXoX",
"oXt t t t t e & 2 L I I P S C 3 3 S P I I U G u p p p a d G Y Y T T T T T } ' } ) / / ) ( { { ( } ..X./ j h d p t g oXoXoXoXoXoX",
"oXoXt 2 1 & & 2 H I H o X X + X ; * H I T K G h h a p d J J K Y T T ( T { { T ' } ' } T ( { ( } } ..j s u s u h h m W oXoXoXoXoX",
"oXoXr : & & & 4 H P X X * ; ; + 5 ; C I I U K G h k d j D J K Y Y / T / } ) ' ' { } ' } T ( ( } ( ^ s s s h m m ^ ....oXoXoXoXoX",
"oXoXoXoXe & & : A U * o ; H * = 5 * H U U T Y G G k j G J J J K K ! ^ Y Y ^ T / ' T } T } / } T { u s s j m ! ] ^ ! D oXoXoXoXoX",
"oXoXoXoXoX& $ : 4 H S o ; C Z , ; 3 H P I I Y U J D J D J J J J J K J L L L ! Y / / / } ( ' / / j d h W ^ ^ / A A.oXoXoXoXoXoXoX",
"oXoXoXoXoXoX& $ 1 C H 5 ; C C * ; C P I T T T P J D d J d J D J J W J W W W W ! L Y ^ / T ' / J p h L K d x.S.X < W Y oXoXoXoXoX",
"oXoXoXoXoXoXoX$ 1 3 C H 3 H H * * 3 P R T T T Y J k G j j D J J j W E J W J Q L L L L Y ^ Y J d p J j 5 a F H K ^ ^ / oXoXoXoXoX",
"oXoXoXoXoXoXoX& $ 3 3 P C H R C * ; H T R T T H G k j k j d j j d J E J J Q J J J J E L ! J s u s K T ....] / T / Y K oXoXoXoXoX",
"oXoXoXoXoXoXoXoX5 3 3 C U P P P S A H R T T Y H a p a a d j k j j j j J J j j J J L J J J m s u h Y ' ....{ ' T Y D d oXoXoXoXoX",
"oXoXoXoXoXoXoXoXC 3 4 3 S T T T P R Y T R R I j h p p h p d d k d j j j j j j h j j j L m m s u s Y Y T / T T K Y K Y ] oXoXoXoX",
"oXoXoXoXoXoXoXoXoXi v :.v y U R T R R P P H G p p p p p p p p p d k d d k h d d h j d h n s s u u J Y P Y Y T Y T E Q o.oXoXoXoX",
"oXoXoXoXoXoXoXoX2.1.=.v =.1.*.4 Z 5 , < 4 4 i 1 t t 1 p t t p p p p s p p p d d p h h h h s s c s K / Y ^ ^ Y v 1.;.>.&.&.oXoXoX",
"oXoXoXoXoXoXoX0.&.2.L.h.Y.*.*.:.* ; > 3 4 3 1 1 1 1 r 1 r r r r t t t p p t p p p h t h u u n u s J / ' ' Y b V w !.U.I.x %.oXoX",
"oXoXoXoXoXoXv *.L.[.8 d.^.2.G.v l , 5 5 3 5 : : : : 1 1 r 1 r r 1 r r r t t y t t u t t u u u u u L ^ / ' 0 *.k.R.!.% .Xh.&.v oX",
"oXoXoXoXoXoX<.c g.l.`.R.k.>.Q.:.=.5 3 3 2 1 $ & & & $ $ : : : : 1 : e e 1 1 e e r 0 y y y y y u s H Y ^ L ;.x j.q.H.(.Q.&.j.v oX",
"oXoXoXoXoXoXV <.2.w z.L.Y.^.Q.d.b 3 3 3 3 5 > & & & # # # # $ & & & & & & & 0 : 7 1 1 e e y y r s K K Y e v 2.!.K.H.F._./.(.=.z ",
"oXoXoXoXoXoX>.3.].Q.z.Q.z.&.8 d.&.3 3 3 3 3 3 2 > $ # # @ @ @ @ @ @ @ @ # O # O @ # # & & 7 : e f A S J e *.3.j.g.l.(.f.g.h.=.oX",
"oXoXoXoXoXoXV =.c.x _.U.J.{.H.<.z oXoXoXoXoXoXoXoXr < ; ; - - = # + + + O O O O O O O O O # # $ , < 2 3 a v &.0 b `.G.}.6 XX&.oX",
"oXoXoXoXoXoXc &.W.d.v.F.w L.{.>.q               . . oXoXoXoXoXoXoXoXoXoXoXoXoXoXoXoXoXoXoXoXoXoXoXoXoX.   b b [.I.D.q c..Xs.x oX",
"oXoXoXoXoX    b =.D./.`..X~.0.l                                                                             l =.T.).].}.3.%.  oX",
"oXoXoXoXoX      7 w =.s.3.c y                                                                                 0 x :.,.%.9   . oX",
"oXoXoXoXoXoXoXoXoXoX% 9 % oXoXoXoXoXoXoXoXoXoXoXoXoXoXoXoXoXoXoXoXoXoXoXoXoXoXoXoXoXoXoXoXoXoXoXoXoXoXoXoXoXoXoXoXoXoXoXoXoXoXoX",
"oXoXoXoXoXoXoXoXoXoXoXoXoXoXoXoXoXoXoXoXoXoXoXoXoXoXoXoXoXoXoXoXoXoXoXoXoXoXoXoXoXoXoXoXoXoXoXoXoXoXoXoXoXoXoXoXoXoXoXoXoXoXoXoX",
"oXoXoXoXoXoXoXoXoXoXoXoXoXoXoXoXoXoXoXoXoXoXoXoXoXoXoXoXoXoXoXoXoXoXoXoXoXoXoXoXoXoXoXoXoXoXoXoXoXoXoXoXoXoXoXoXoXoXoXoXoXoXoXoX",
"oXoXoXoXoXoXoXoXoXoXoXoXoXoXoXoXoXoXoXoXoXoXoXoXoXoXoXoXoXoXoXoXoXoXoXoXoXoXoXoXoXoXoXoXoXoXoXoXoXoXoXoXoXoXoXoXoXoXoXoXoXoXoXoX",
"oXoXoXoXoXoXoXoXoXoXoXoXoXoXoXoXoXoXoXoXoXoXoXoXoXoXoXoXoXoXoXoXoXoXoXoXoXoXoXoXoXoXoXoXoXoXoXoXoXoXoXoXoXoXoXoXoXoXoXoXoXoXoXoX",
"oXoXoXoXoXoXoXoXoXoXoXoXoXoXoXoXoXoXoXoXoXoXoXoXoXoXoXoXoXoXoXoXoXoXoXoXoXoXoXoXoXoXoXoXoXoXoXoXoXoXoXoXoXoXoXoXoXoXoXoXoXoXoXoX",
"oXoXoXoXoXoXoXoXoXoXoXoXoXoXoXoXoXoXoXoXoXoXoXoXoXoXoXoXoXoXoXoXoXoXoXoXoXoXoXoXoXoXoXoXoXoXoXoXoXoXoXoXoXoXoXoXoXoXoXoXoXoXoXoX",
"oXoXoXoXoXoXoXoXoXoXoXoXoXoXoXoXoXoXoXoXoXoXoXoXoXoXoXoXoXoXoXoXoXoXoXoXoXoXoXoXoXoXoXoXoXoXoXoXoXoXoXoXoXoXoXoXoXoXoXoXoXoXoXoX",
"oXoXoXoXoXoXoXoXoXoXoXoXoXoXoXoXoXoXoXoXoXoXoXoXoXoXoXoXoXoXoXoXoXoXoXoXoXoXoXoXoXoXoXoXoXoXoXoXoXoXoXoXoXoXoXoXoXoXoXoXoXoXoXoX"
};
