/* XPM */
static char *result[] = {
/* columns rows colors chars-per-pixel */
"64 64 205 2 ",
"   c #191713",
".  c #241D15",
"X  c #27211A",
"o  c #372E1F",
"O  c #242322",
"+  c #2A2625",
"@  c #2B2A25",
"#  c #2E2C2A",
"$  c #332D23",
"%  c #312F2B",
"&  c #2F302A",
"*  c #3B3225",
"=  c #34322B",
"-  c #3C352B",
";  c #3B392B",
":  c #3B3532",
">  c #3E3A37",
",  c #3B3A38",
"<  c #443629",
"1  c #443A2C",
"2  c #493D2E",
"3  c #403B25",
"4  c #443D34",
"5  c #4A3E32",
"6  c #4B472E",
"7  c #4B462D",
"8  c #58522E",
"9  c #4D4435",
"0  c #4A4936",
"q  c #4C433B",
"w  c #464435",
"e  c #514435",
"r  c #564A36",
"t  c #52473A",
"y  c #554A3C",
"u  c #5A4D3E",
"i  c #5F5A3C",
"p  c #5A5437",
"a  c #635D3D",
"s  c #64533D",
"d  c #67623D",
"f  c #6A663C",
"g  c #7A733F",
"h  c #746C3B",
"j  c #474642",
"k  c #544C42",
"l  c #5A4E42",
"z  c #5D5242",
"x  c #585149",
"c  c #635545",
"v  c #655946",
"b  c #6B5C47",
"n  c #625749",
"m  c #655A4B",
"M  c #6C5D4B",
"N  c #685745",
"B  c #715F4C",
"V  c #645B51",
"C  c #695F54",
"Z  c #676343",
"A  c #6B6643",
"S  c #6E6A46",
"D  c #6E604D",
"F  c #6E6A49",
"G  c #72624D",
"H  c #726D49",
"J  c #7C694F",
"K  c #756A4B",
"L  c #75704A",
"P  c #79734B",
"I  c #7D7747",
"U  c #6D6252",
"Y  c #6E6458",
"T  c #756551",
"R  c #786753",
"E  c #766855",
"W  c #7B6B55",
"Q  c #71675B",
"!  c #756C5B",
"~  c #7D6D5A",
"^  c #7D7850",
"/  c #7F705B",
"(  c #7F7157",
")  c #796E61",
"_  c #766C60",
"`  c #7D7161",
"'  c #837B47",
"]  c #837C4C",
"[  c #887E43",
"{  c #816E55",
"}  c #806F5B",
"|  c #847D52",
" . c #83735C",
".. c #8A765D",
"X. c #86785E",
"o. c #8A795F",
"O. c #827157",
"+. c #857562",
"@. c #887764",
"#. c #877863",
"$. c #8A7A63",
"%. c #877B6E",
"&. c #8C7D6A",
"*. c #917E64",
"=. c #917F6B",
"-. c #877C70",
";. c #85804C",
":. c #8B834E",
">. c #8F8446",
",. c #928849",
"<. c #9D924D",
"1. c #8B8453",
"2. c #8E895A",
"3. c #968E54",
"4. c #948D5A",
"5. c #9B9254",
"6. c #99915B",
"7. c #9B955E",
"8. c #A59A55",
"9. c #A59D5F",
"0. c #A09756",
"q. c #ACA35D",
"w. c #B2A85D",
"e. c #938167",
"r. c #94836B",
"t. c #99866D",
"y. c #99886E",
"u. c #958E63",
"i. c #9F9862",
"p. c #938572",
"a. c #9C8B73",
"s. c #958A7B",
"d. c #9C8D7B",
"f. c #958776",
"g. c #9E907D",
"h. c #86837C",
"j. c #A59E68",
"k. c #A18E76",
"l. c #A28F7E",
"z. c #A19077",
"x. c #A3937B",
"c. c #ACA365",
"v. c #AFA66B",
"b. c #B4AA63",
"n. c #B6AE6C",
"m. c #B4AB65",
"M. c #BDB265",
"N. c #BAB269",
"B. c #AFAA70",
"V. c #C0B769",
"C. c #C2B96B",
"Z. c #C0B773",
"A. c #C4BC74",
"S. c #C8C06F",
"D. c #CEC476",
"F. c #CBC37B",
"G. c #D4CB7D",
"H. c #978E82",
"J. c #9C9386",
"K. c #9A9792",
"L. c #A49583",
"P. c #AA9B89",
"I. c #A49988",
"U. c #B0A087",
"Y. c #AEA59A",
"T. c #ADA193",
"R. c #B1A595",
"E. c #B6AA9B",
"W. c #B4AA9A",
"Q. c #B9B09F",
"!. c #B4ADA3",
"~. c #BCAFA2",
"^. c #BBB1A3",
"/. c #BDB6AB",
"(. c #C2BAAC",
"). c #C7BDB4",
"_. c #CAC2B7",
"`. c #CCC5BB",
"'. c #CBC4B9",
"]. c #D1C9BF",
"[. c #D0C6BA",
"{. c #C8C6C3",
"}. c #D2CBC2",
"|. c #D4CFC9",
" X c #DBD4CC",
".X c #D6D3CE",
"XX c #DDDAD4",
"oX c #DAD8D5",
"OX c #E0D7CE",
"+X c #E3DDD5",
"@X c #E1DDD8",
"#X c #E4E1DC",
"$X c #E8E2DB",
"%X c #E9E7E3",
"&X c #E7E8E5",
"*X c #EDEAE6",
"=X c #EEEDEA",
"-X c #E6E5E1",
";X c #F2EFEB",
":X c #F1EEE7",
">X c #F5F2ED",
",X c #F6F5F2",
"<X c #F9F9F6",
"1X c #000000",
"2X c #000000",
/* pixels */
"1X1X1X1X1X1X1X1X1X1X1X1X1X1X1X1X1X1X1X1X1X1X1X1X1X1X1X1X1X1X1X1X1X1X1X1X1X1X1X1X1X1X1X1X1X1X1X1X1X1X1X1X1X1X1X1X1X1X1X1X1X1X1X1X",
"1X1X1X1X1X1X1X1X1X1X1X1X1X1X1X1X1X1X1X1X1X1X1X1X1X1X1X1X1X1X1X1X1X1X1X1X1X1X1X1X1X1X1X1X1X1X1X1X1X1X1X1X1X1X1X1X1X1X1X1X1X1X1X1X",
"1X1X1X1X1X1X1X1X1X1X1X1X1X1X1X1X1X1X1X1X1X1X1X1X1X1X1X1X1X1X1X1X1X1X1X1X1X1X1X1X1X1X1X1X1X1X1X1X1X1X1X1X1X1X1X1X1X1X1X1X1X1X1X1X",
"1X1X1X1X1X1X1X1X1X1X1X1X1X1X1X1X1X1X1X1X1X1X1X1X1X1X1X1X1X1X1X1X1X1X1X1X1X1X1X1X1X1X1X1X1X1X1X1X1X1X1X1X1X1X1X1X1X1X1X1X1X1X1X1X",
"1X1X1X1X1X1X1X1X1X1X1X1X1X1X1X1X1X1X1X1X1X1X1X1X1X1X1X1X1X1X1X1X1X1X1X1X1X1X1X1X1X1X1X1X1X1X1X1X1X1X1X1X1X1X1X1X1X1X1X1X1X1X1X1X",
"1X1X1X1X1X1X1X1X1X1X1X1X1X1X1X1X1X1X<X1X1X1X1X1X1X1X1X1X1X1X1X1X1X1X1X1X1X1X1X1X1X1X1X1X1X1X1X1X1X1X1X1X1X1X1X1X1X1X1X1X1X1X1X1X",
"1X1X1X1X1X1X1X1X1X1X1X1X1X1X<X=X1X1X1X1X1X<X1X1X1X1X1X1X1X1X1X1X1X1X1X1X1X1X1X1X1X1X1X1X1X1X1X1X1X1X1X1X1X1X1X1X1X1X1X1X1X1X1X1X",
"1X1X1X1X1X1X1X1X1X1X1X1X1X1X].+.-.H.!.<X1X1X1X1X1X1X1X1X1X1X1X1X1X1X1X1X1X1X1X1X1X1X1X1X1X1X1X1X1X1X1X1X1X1X1X1X1X1X1X1X1X1X1X1X",
"1X1X1X1X1X1X1X1X1X1X1X1X1X1XE.r.r.$.~ R.`.XX=X1X1X1X1X1X1X1X1X1X1X1X1X1X1X1X1X1X1X1X1X1X1X1X1X1X1X1X1X1X1X1X1X1X1X1X1X1X1X1X1X1X",
"1X1X1X1X1X1X1X1X1X1X1X1X1X>X&.W ..*.e.$.o.$.t.x.W._.oX=X<X1X1X1X1X1X1X1X1X1X1X1X1X1X1X1X1X1X1X1X1X1X1X1X1X1X1X1X1X1X1X1X1X1X1X1X",
"1X1X1X1X1X1X1X1X1X1X1X1X1X%XU  .*.$.$.*.$.*.....X.....r.g.R.).XX&X1X1X1X1X1X1X1X<X1X1X1X1X1X1X1X1X1X1X1X1X1X1X1X1X1X1X1X1X1X1X1X",
"1X1X1X1X1X1X1X1X1X1X1X1X1X<XL./ =.=.e.$.*.o............... .O. .$.d.R._.@X>X1X1X1X1X1X1X<X1X1X1X1X1X1X1X1X1X1X1X1X1X1X1X1X1X1X1X",
"1X1X1X1X1X1X1X1X1X1X1X1X1X1Xg.y  .~ +.@.$.$.$.$.*...@...o......... .O.{ ..e.L.^.|.*X<X1X1X1X1X1X1X1X1X1X1X1X1X1X1X1X1X1X1X1X1X1X",
"1X1X1X1X1X1X1X1X1X1X1X1X1X,X#.n +.~ W ~ ~ ~ +.+.@.&.=.*.$.$.o..... .O. ... .{ W ~ #.f.T._.@X,X1X1X1X1X1X1XoX1X1X<X1X1X1X1X1X1X1X",
"1X1X1X1X1X1X1X1X1X1X1X1X1X$XU U  .~ ~ ~ ~ O. .W W W ~ W ~  .+.$.$.$.o.$... . .X. .O.{ { J O.$.x.!.}.%X<X.XK.<X1X1X1X1X1X1X1X1X1X",
"1X1X1X1X1X1X1X1X1X1X1X1X1X}.n ~ O./ ~ ~ / X. .~ R W W R G E G G W ~  .o.$.e.$.$...O. .O. . .O.J K W O.p.E E ` s.Y.%X1X1X1X1X1X1X",
"1X1X1X1X1X1X1X1X1X1X1X1X1X!.z #.n n R } ~ m Q ~  .X.} ~ R R T E G G B B G R ~ X.o.$.$.$.o. .O. . .O.O.{ X.O.{ J s /.1X<X1X1X1X1X",
"1X1X1X1X1X1X1X1X1X1X1X1X1Xg.n %.W ~ ~ X.4 @ % @ % q m R ~ { W W R G G K G G B b M G E ~ X.o.$... . . . .O.O. . .O.|.1X1X1X1X1X1X",
"1X1X1X1X1X1X1X1X1X1X1X1X,X+.U $. .+. .~ O j.c.4.H 0 @ @ @ - q l u s b G G G G G G D M T M B T R {  ..... . . . .$.#X1X1X1X1X1X1X",
"1X1X1X1X1X1X1X1X1X1X1X1X$XM ) #. .) +.C % Z.0.5.G.C.>.h f A 0 j j $ < u c M G G W G T T B B B B b b b G W / ~  .p.<X1X1X1X1X1X1X",
"1X1X1X1X1X1X1X1X1X1X1X1X[.c @.+.+.~ $.k 0 C.I I m.C.8.<.M.D.N.N.u.! $ 9 c u 9 u z N E G B B B B G B B B a N   I.%X1X1X1X1X1X1X1X",
"1X1X1X1X1X1X1X1X1X1X<X1XE.x =.+.#./ $., F N.a p g p f ;.5.w.M.w.5.u.4 r M u t t r t u q z T R B G D B B B u X .X1X1X1X1X1X1X1X1X",
"1X1X1X1X1X1X1X1X1X1X1X1Xd.m r.+.+.} #.# 2.A.3.' 8 3 8 7 6 ;.3.;.<.A , M B t t y M z z l t c N G G B B B B 2 t ,X1X1X1X1X1X1X1X1X",
"1X1X1X1X1X1X1X1X1X1X1X,X+.Q r. .+.` / # B.G.A.] :.;.3.c.5.:.6.d G.y : O.b t 9 t N E E B M c u B K B G B G * ~ 1X1X1X1X1X1X1X1X1X",
"1X1X1X1X1X1X1X1X1X1X1X$XT +.&.+.+.~ m = N.Q.w.f I ;.L ;.:.3.c.n.F.= u ( G T T m l G E E T R R T G G G D D $ I.1X<X1X1X1X1X1X1X1X",
"1X1X1X1X1X1X1X1X1X1X1X[.m &.%.X.) ` j w 8.F.q.S L L Z P ^ d q.F.v.O M W p z c M T E T T E T T K G G D G m $ _.1X1X1X1X1X1X1X1X1X",
"1X1X1X1X1X1X1X1X1X1X1XE.m p.@.@.~ ` > 8 q.S.2.L H F P ^ P S w.M.;.O ~ W u z y l t T ~ R R E R R E D M G z 1 #X1X1X1X1X1X1X1X1X1X",
"1X1X1X1X1X1X1X1X1X1X1Xd.C f.+.@.` ! # :.N.N.^ H 1.Z z ^ P I N.,.0 =  .G u u u m l t z N G R E G G D z b 4 n <X1X1X1X1X1X1X1X1X1X",
"1X1X1X1X1X1X1X1X1X1X>X+.~ f.+.$.` Y # n.S.b.L ^ ^ L F z A 6.b.,.; 4 +.M y z u u y t c l z K R R J G G T ; %.1X1X1X1X1X1X1X1X1X1X",
"1X1X1X1X1X1X1X1X1X1X+XD %.r.#.+.&.V ; w.M.q.a H H ^ A L ;.c.M.q.@ n X.n k l z l N k k t l t u l N G G D $ Y.1X1X1X1X1X1X1X1X1X1X",
"1X1X1X1X1X1X1X1X<X1X'.v f.&.$.+.&.V @ i ] i.;.1.H H i A P 5.b.7.O T O.~ ~ T v D W G N z u c u t 1 v E v * }.1X1X1X1X1X1X1X1X1X1X",
"1X1X1X1X1X1X1X1X1X1XE.m d.$.#.#.+.#.z , & = w z F 1.4.2.6.<.<.f @  .W l M G H E R } R { R T G M z u E y e *X1X1X1X1X1X1X1X1X1X1X",
"1X1X1X1X1X1X1X1X1X1XH.Y J.@.@.@.#.@.$.$.+.~ m j : % = 0 i f :.7 : $.W y m u c y u c E R G W R R R R T 2 U 1X1X1X1X1X1X1X1X1X1X1X",
"1X1X1X1X1X1X1X1X1X=X+.) d.@.$.@.+.@.@.+.@.$.$.$.@.~ T l 4 % @ O c  .M m c m W W E D R W R K E R K G T * s.1X1X1X1X1X1X1X1X1X1X1X",
"1X1X1X1X1X1X1X1X1X+XQ $.f.@.$.@.@.$.@.X.+. . .+. . .X.@.@.@.E E  .} m m z c u M B b B T R W W R R T M * /.1X1X1X1X1X1X1X1X1X1X1X",
"1X1X1X1X1X1X1X1X1X}.C s.e.o.@.+.%.@.@.@.@.@...+.+. .O.} } }  . .~ ~ R W M v N k z 9 u z l u b R R R c <  X1X1X1X1X1X1X1X1X1X1X1X",
"1X1X1X1X1X1X1X1X1X^.m J.&.@.@.+.+.$.$.#.+. .+.+.+. .} +. ./ / } } ~ ~  . ./ ~ E R c N l t z M T E R u l ;X1X1X<X1X1X1X1X1X1X1X1X",
"1X1X1X1X1X1X1X1X<XJ.U x.&.$.$.#.$.#.@.+.X.X.+. .+. .} +. .}  .} } } ~ } ~ ~ W ~ W W W ~ T R { R R W 4 ) 1X1X1X1X1X1X1X1X1X1X1X1X",
"1X1X1X1X1X1X1X1X,X+.) L.$.$.%.$.$.+.@.@.+. ...X.+.X. . . .~  .~ }  . .}  .~ ~ W W R ~ R R ~ R ~ E E - L.1X1X1X1X1X1X1X1X1X1X1X1X",
"1X1X1X1X1X1X1X1X Xm %.d.$.$.#.$.$.$.$.@.@. .+.@.@.+. . . . .` / / } +.~  ./ { R ~ ~ R ~ R ~ R E W U - ).1X1X1X1X1X1X1X1X1X1X1X1X",
"1X1X1X1X1X1X1X1X(.k H.~ R  .+.@.@.$.$.+.+.#.+.@.X.X. . .+.}  ./ } / +. .+.~ ~ ~ W ~ W W E W W W ~ n 2 @X1X1X1X1X1X1X1X1X1X1X1X1X",
"1X1X1X1X1X1X1X1XH.k l._ @. .+.@.#.$.#.@.@.$.@.@.+.X.X. . . .+.~ O.+. . .~  ./ ~ ~ ~ W W ~ E ~ E R y n 2X1X1X1X1X1X1X1X1X1X1X1X1X",
"1X1X1X1X1X1X1X2XV k L.$.@.+.@.@.#.@.@.@.@.@.o.+.+.X.+. .+. ./  . ./  ./  .~ ~ ~ ~ W ~ W W ~ E W ~ 4 %.1X1X1X1X1X1X1X1X1X1X1X1X1X",
"1X1X1X1X1X1X=Xh.  z &.~ ~ ~ }  .+.+.$.+.+.X.X.+. . . .O.} +. . . . . ./ /  .O.O.~ ~ ~ ~ ( ~ W W R - T.1X1X1X1X1X1X1X1X1X1X1X1X1X",
"1X1X1X1X1X1XE.9 . 5 z y z b U E ~ } } ~ ~ }  . . .O.O. .~ +.+.+. ./ ~  .X. . .~ ~ ~ ~ W ~ ~ W ~ U 1 }.1X1X1X1X1X1X1X1X1X1X1X1X1X",
"1X1X1X1X1X=XP.U.x.p.@.U z 9 9 9 y c B T E R R ~ ~ { ~ O. . .~  .+./ /  .+.} / ~ +./ ~ ~ W W ! / n t %X1X1X1X1X1X1X1X1X1X1X1X1X1X",
"1X1X1X1X1XXXz.a.z.x.x.x.x.a.&.~ m u 9 9 e u c M B G T E E ~ ~ ~ ~ / ~  .}  ./  .~ ~ } } ~ W W e.y U 1X1X1X1X1X1X1X1X1X1X1X1X1X1X",
"1X1X1X1X1X].a.z.z.z.x.a.a.a.k.x.x.a.r.+.T l e 2 2 e u c M T T E E W W ~ ~ ~ /  .~ ~ ~ } ( E n / ; p.1X1X1X1X1X1X1X1X1X1X1X1X1X1X",
"1X1X1X1X1X_.a.a.a.a.y.t.y.y.a.a.y.a.a.z.x.x.y.e.! n t 2 4 5 t s c M B T R R R W W W W W ~ W Q E - !.1X1X1X1X1X1X1X1X1X1X1X1X1X1X",
"1X1X1X1X1X,XXX!.(.I.^.~.L.a.r.r.t.t.y.y.t.e.y.a.g.x.g.y.#.D l t 5 2 9 t l n M B B G E G E W ( E <  X1X<X1X1X1X1X1X1X1X1X1X1X1X1X",
"1X1X1X1X1X1X&X{.<X<X1X1X1X%X X(.R.x.y.e.e.r.t.y.y.r.r.y.a.k.d.y.&.~ M l e 4 5 5 e u s N b D W u 9 :X1X1X1X1X1X1X1X1X1X1X1X1X1X1X",
"1X1X1X1X1X1X<X<X1X1X1X1X1X1X1X1X1X,X#X}.^.P.a.r.e.e.r.r.r.t.e.t.t.a.k.y.t.$.~ m u 5 1 1 2 9 v - C 1X1X1X1X1X1X1X1X1X1X1X1X1X1X1X",
"1X1X1X1X1X1X1X1X1X1X1X1X1X1X1X<X1X1X1X1X1X<X&X X(.R.x.t.e.e.*.e.r.=.r.e.e.e.t.t.t.*...T n y 0 . x 1X1X1X1X1X1X1X1X1X1X1X1X1X1X1X",
"1X1X1X1X1X1X1X1X1X1X1X1X1X1X1X1X1X1X1X<X1X1X1X1X1X1X,X@X].~.P.d.r.*.*.*.=.e.e.*.*.*.*.r.y.t.=. .c }.1X1X1X1X1X<X1X1X1X1X1X1X1X1X",
"1X1X1X1X1X1X1X1X1X1X1X1X1X1X1X1X1X1X1X1X1X1X1X1X1X1X1X1X1X1X<X=X@X].~.P.a.r.*.*.*.*.*.=.$.e.e.$.m oX1X1X1X1X1X1X1X1X1X1X1X1X1X1X",
"1X1X1X1X1X1X1X1X1X1X1X1X1X1X1X1X1X1X1X1X1X1X1X1X1X1X1X1X1X1X1X1X1X1X1X<X;X@X`.~.P.k.r.*.t.r.r.$.p.,X1X1X1X1X1X1X1X1X1X1X1X1X1X1X",
"1X1X1X1X1X1X1X1X1X1X1X1X1X1X1X1X1X1X1X1X1X1X1X1X1X1X1X1X1X1X1X1X1X1X1X1X1X1X1X1X<X=X#X/.r.r.t.r.T.1X1X1X1X1X1X1X1X1X1X1X1X1X1X1X",
"1X1X1X1X1X1X1X1X1X1X1X1X1X1X1X1X1X1X1X1X1X1X1X1X1X1X1X1X1X1X1X1X1X1X1X1X1X1X1X<X1X1X1X1XoX_.E.d./.1X1X1X1X1X1X1X1X1X1X1X1X1X1X1X",
"1X1X1X1X1X1X1X1X1X1X1X1X1X1X1X1X1X1X1X1X1X1X1X1X1X1X1X1X1X1X1X1X1X1X1X1X1X1X1X1X1X1X1X1X1X1X1X,X,X1X1X1X1X1X1X1X1X1X1X1X1X1X1X1X",
"1X1X1X1X1X1X1X1X1X1X1X1X1X1X1X1X1X1X1X1X1X1X1X1X1X1X1X1X1X1X1X1X1X1X1X1X1X1X1X1X1X1X1X1X1X1X1X1X1X1X1X1X1X1X1X1X1X1X1X1X1X1X1X1X",
"1X1X1X1X1X1X1X1X1X1X1X1X1X1X1X1X1X1X1X1X1X1X1X1X1X1X1X1X1X1X1X1X1X1X1X1X1X1X1X1X1X1X1X1X1X1X1X1X1X1X1X1X1X1X1X1X1X1X1X1X1X1X1X1X",
"1X1X1X1X1X1X1X1X1X1X1X1X1X1X1X1X1X1X1X1X1X1X1X1X1X1X1X1X1X1X1X1X1X1X1X1X1X1X1X1X1X1X1X1X1X1X1X1X1X1X1X1X1X1X1X1X1X1X1X1X1X1X1X1X",
"1X1X1X1X1X1X1X1X1X1X1X1X1X1X1X1X1X1X1X1X1X1X1X1X1X1X1X1X1X1X1X1X1X1X1X1X1X1X1X1X1X1X1X1X1X1X1X1X1X1X1X1X1X1X1X1X1X1X1X1X1X1X1X1X",
"1X1X1X1X1X1X1X1X1X1X1X1X1X1X1X1X1X1X1X1X1X1X1X1X1X1X1X1X1X1X1X1X1X1X1X1X1X1X1X1X1X1X1X1X1X1X1X1X1X1X1X1X1X1X1X1X1X1X1X1X1X1X1X1X"
};
